<?xml version="1.0" encoding="utf-8"?>
<!-- Generator: Adobe Illustrator 26.2.1, SVG Export Plug-In . SVG Version: 6.00 Build 0)  -->
<svg version="1.1" id="Capa_1" xmlns="http://www.w3.org/2000/svg" xmlns:xlink="http://www.w3.org/1999/xlink" x="0px" y="0px"
	 viewBox="0 0 1580 1280" style="enable-background:new 0 0 1580 1280;" xml:space="preserve">
<style type="text/css">
	.st0{fill:#50534A;}
	.st1{fill:#727A5F;}
	.st2{fill:#89985E;}
	.st3{fill:#94AF48;}
	.st4{fill:#95C11F;}
</style>
<g>
	<rect x="-556.7" y="201.8" width="65.7" height="79.1"/>
	<rect x="-504.8" y="201.8" class="st0" width="65.7" height="79.1"/>
	<rect x="-452.8" y="201.8" class="st1" width="65.7" height="79.1"/>
	<rect x="-400.9" y="201.8" class="st2" width="65.7" height="79.1"/>
	<rect x="-348.9" y="201.8" class="st3" width="65.7" height="79.1"/>
	<rect x="-297" y="201.8" class="st4" width="65.7" height="79.1"/>
</g>
<g>
	<g>
		<g>
			<path class="st4" d="M151.3,355.5c-8.7,0-17.3,0.1-26,0c-5.3,0-10-1.7-13.7-5.7c-3.3-3.6-4.5-8-4.5-12.8c0-6.4,0.6-12.7,2.6-18.8
				c1.9-6.1,4.9-11.6,10.7-15c3.1-1.8,6.4-2.5,9.9-2.5c1,0,2.1,0.5,3.1,1c1.6,0.9,3.1,2,4.7,2.9c8.9,5.5,17.8,5.5,26.6,0
				c0.9-0.6,1.9-1.1,2.8-1.8c3.4-2.8,7.2-2.4,11-1.3c6.7,2,10.7,6.9,13.3,13.1c3.2,7.7,4.2,15.9,3.8,24.2
				c-0.4,9.1-6.6,15.4-15.6,16.4c-2.3,0.2-4.6,0.2-6.9,0.3C165.9,355.5,158.6,355.5,151.3,355.5
				C151.3,355.5,151.3,355.5,151.3,355.5z"/>
			<path class="st4" d="M150.8,300.5c-14.2,0-25.5-11.3-25.5-25.6c0-14.2,11.3-25.5,25.5-25.5c14.2,0,25.7,11.5,25.6,25.6
				C176.2,289.3,164.9,300.5,150.8,300.5z"/>
		</g>
		<g>
			<path class="st4" d="M260,355.5c-8.7,0-17.3,0.1-26,0c-5.3,0-10-1.7-13.7-5.7c-3.3-3.6-4.5-8-4.5-12.8c0-6.4,0.6-12.7,2.6-18.8
				c1.9-6.1,4.9-11.6,10.7-15c3.1-1.8,6.4-2.5,9.9-2.5c1,0,2.1,0.5,3.1,1c1.6,0.9,3.1,2,4.7,2.9c8.9,5.5,17.8,5.5,26.6,0
				c0.9-0.6,1.9-1.1,2.8-1.8c3.4-2.8,7.2-2.4,11-1.3c6.7,2,10.7,6.9,13.3,13.1c3.2,7.7,4.2,15.9,3.8,24.2
				c-0.4,9.1-6.6,15.4-15.6,16.4c-2.3,0.2-4.6,0.2-6.9,0.3C274.5,355.5,267.3,355.5,260,355.5C260,355.5,260,355.5,260,355.5z"/>
			<path class="st4" d="M259.4,300.5c-14.2,0-25.5-11.3-25.5-25.6c0-14.2,11.3-25.5,25.5-25.5c14.2,0,25.7,11.5,25.6,25.6
				C284.9,289.3,273.6,300.5,259.4,300.5z"/>
		</g>
		<g>
			<path class="st4" d="M368.7,355.5c-8.7,0-17.3,0.1-26,0c-5.3,0-10-1.7-13.7-5.7c-3.3-3.6-4.5-8-4.5-12.8c0-6.4,0.6-12.7,2.6-18.8
				c1.9-6.1,4.9-11.6,10.7-15c3.1-1.8,6.4-2.5,9.9-2.5c1,0,2.1,0.5,3.1,1c1.6,0.9,3.1,2,4.7,2.9c8.9,5.5,17.8,5.5,26.6,0
				c0.9-0.6,1.9-1.1,2.8-1.8c3.4-2.8,7.2-2.4,11-1.3c6.7,2,10.7,6.9,13.3,13.1c3.2,7.7,4.2,15.9,3.8,24.2
				c-0.4,9.1-6.6,15.4-15.6,16.4c-2.3,0.2-4.6,0.2-6.9,0.3C383.2,355.5,375.9,355.5,368.7,355.5
				C368.7,355.5,368.7,355.5,368.7,355.5z"/>
			<path class="st4" d="M368.1,300.5c-14.2,0-25.5-11.3-25.5-25.6c0-14.2,11.3-25.5,25.5-25.5c14.2,0,25.7,11.5,25.6,25.6
				C393.6,289.3,382.2,300.5,368.1,300.5z"/>
		</g>
		<g>
			<path class="st4" d="M477.3,355.5c-8.7,0-17.3,0.1-26,0c-5.3,0-10-1.7-13.7-5.7c-3.3-3.6-4.5-8-4.5-12.8c0-6.4,0.6-12.7,2.6-18.8
				c1.9-6.1,4.9-11.6,10.7-15c3.1-1.8,6.4-2.5,9.9-2.5c1,0,2.1,0.5,3.1,1c1.6,0.9,3.1,2,4.7,2.9c8.9,5.5,17.8,5.5,26.6,0
				c0.9-0.6,1.9-1.1,2.8-1.8c3.4-2.8,7.2-2.4,11-1.3c6.7,2,10.7,6.9,13.3,13.1c3.2,7.7,4.2,15.9,3.8,24.2
				c-0.4,9.1-6.6,15.4-15.6,16.4c-2.3,0.2-4.6,0.2-6.9,0.3C491.9,355.5,484.6,355.5,477.3,355.5
				C477.3,355.5,477.3,355.5,477.3,355.5z"/>
			<path class="st4" d="M476.8,300.5c-14.2,0-25.5-11.3-25.5-25.6c0-14.2,11.3-25.5,25.5-25.5c14.2,0,25.7,11.5,25.6,25.6
				C502.2,289.3,490.9,300.5,476.8,300.5z"/>
		</g>
		<g>
			<path class="st4" d="M586,355.5c-8.7,0-17.3,0.1-26,0c-5.3,0-10-1.7-13.7-5.7c-3.3-3.6-4.5-8-4.5-12.8c0-6.4,0.6-12.7,2.6-18.8
				c1.9-6.1,4.9-11.6,10.7-15c3.1-1.8,6.4-2.5,9.9-2.5c1,0,2.1,0.5,3.1,1c1.6,0.9,3.1,2,4.7,2.9c8.9,5.5,17.8,5.5,26.6,0
				c0.9-0.6,1.9-1.1,2.8-1.8c3.4-2.8,7.2-2.4,11-1.3c6.7,2,10.7,6.9,13.3,13.1c3.2,7.7,4.2,15.9,3.8,24.2
				c-0.4,9.1-6.6,15.4-15.6,16.4c-2.3,0.2-4.6,0.2-6.9,0.3C600.5,355.5,593.3,355.5,586,355.5C586,355.5,586,355.5,586,355.5z"/>
			<path class="st4" d="M585.4,300.5c-14.2,0-25.5-11.3-25.5-25.6c0-14.2,11.3-25.5,25.5-25.5c14.2,0,25.7,11.5,25.6,25.6
				C610.9,289.3,599.6,300.5,585.4,300.5z"/>
		</g>
		<g>
			<path class="st4" d="M694.7,355.5c-8.7,0-17.3,0.1-26,0c-5.3,0-10-1.7-13.7-5.7c-3.3-3.6-4.5-8-4.5-12.8c0-6.4,0.6-12.7,2.6-18.8
				c1.9-6.1,4.9-11.6,10.7-15c3.1-1.8,6.4-2.5,9.9-2.5c1,0,2.1,0.5,3.1,1c1.6,0.9,3.1,2,4.7,2.9c8.9,5.5,17.8,5.5,26.6,0
				c0.9-0.6,1.9-1.1,2.8-1.8c3.4-2.8,7.2-2.4,11-1.3c6.7,2,10.7,6.9,13.3,13.1c3.2,7.7,4.2,15.9,3.8,24.2
				c-0.4,9.1-6.6,15.4-15.6,16.4c-2.3,0.2-4.6,0.2-6.9,0.3C709.2,355.5,701.9,355.5,694.7,355.5
				C694.7,355.5,694.7,355.5,694.7,355.5z"/>
			<path class="st4" d="M694.1,300.5c-14.2,0-25.5-11.3-25.5-25.6c0-14.2,11.3-25.5,25.5-25.5c14.2,0,25.7,11.5,25.6,25.6
				C719.6,289.3,708.2,300.5,694.1,300.5z"/>
		</g>
		<g>
			<path class="st4" d="M803.3,355.5c-8.7,0-17.3,0.1-26,0c-5.3,0-10-1.7-13.7-5.7c-3.3-3.6-4.5-8-4.5-12.8c0-6.4,0.6-12.7,2.6-18.8
				c1.9-6.1,4.9-11.6,10.7-15c3.1-1.8,6.4-2.5,9.9-2.5c1,0,2.1,0.5,3.1,1c1.6,0.9,3.1,2,4.7,2.9c8.9,5.5,17.8,5.5,26.6,0
				c0.9-0.6,1.9-1.1,2.8-1.8c3.4-2.8,7.2-2.4,11-1.3c6.7,2,10.7,6.9,13.3,13.1c3.2,7.7,4.2,15.9,3.8,24.2
				c-0.4,9.1-6.6,15.4-15.6,16.4c-2.3,0.2-4.6,0.2-6.9,0.3C817.9,355.5,810.6,355.5,803.3,355.5
				C803.3,355.5,803.3,355.5,803.3,355.5z"/>
			<path class="st4" d="M802.8,300.5c-14.2,0-25.5-11.3-25.5-25.6c0-14.2,11.3-25.5,25.5-25.5c14.2,0,25.7,11.5,25.6,25.6
				C828.2,289.3,816.9,300.5,802.8,300.5z"/>
		</g>
		<g>
			<path class="st4" d="M912,355.5c-8.7,0-17.3,0.1-26,0c-5.3,0-10-1.7-13.7-5.7c-3.3-3.6-4.5-8-4.5-12.8c0-6.4,0.6-12.7,2.6-18.8
				c1.9-6.1,4.9-11.6,10.7-15c3.1-1.8,6.4-2.5,9.9-2.5c1,0,2.1,0.5,3.1,1c1.6,0.9,3.1,2,4.7,2.9c8.9,5.5,17.8,5.5,26.6,0
				c0.9-0.6,1.9-1.1,2.8-1.8c3.4-2.8,7.2-2.4,11-1.3c6.7,2,10.7,6.9,13.3,13.1c3.2,7.7,4.2,15.9,3.8,24.2
				c-0.4,9.1-6.6,15.4-15.6,16.4c-2.3,0.2-4.6,0.2-6.9,0.3C926.5,355.5,919.3,355.5,912,355.5C912,355.5,912,355.5,912,355.5z"/>
			<path class="st4" d="M911.4,300.5c-14.2,0-25.5-11.3-25.5-25.6c0-14.2,11.3-25.5,25.5-25.5c14.2,0,25.7,11.5,25.6,25.6
				C936.9,289.3,925.6,300.5,911.4,300.5z"/>
		</g>
		<g>
			<path class="st4" d="M1020.7,355.5c-8.7,0-17.3,0.1-26,0c-5.3,0-10-1.7-13.7-5.7c-3.3-3.6-4.5-8-4.5-12.8
				c0-6.4,0.6-12.7,2.6-18.8c1.9-6.1,4.9-11.6,10.7-15c3.1-1.8,6.4-2.5,9.9-2.5c1,0,2.1,0.5,3.1,1c1.6,0.9,3.1,2,4.7,2.9
				c8.9,5.5,17.8,5.5,26.6,0c0.9-0.6,1.9-1.1,2.8-1.8c3.4-2.8,7.2-2.4,11-1.3c6.7,2,10.7,6.9,13.3,13.1c3.2,7.7,4.2,15.9,3.8,24.2
				c-0.4,9.1-6.6,15.4-15.6,16.4c-2.3,0.2-4.6,0.2-6.9,0.3C1035.2,355.5,1027.9,355.5,1020.7,355.5
				C1020.7,355.5,1020.7,355.5,1020.7,355.5z"/>
			<path class="st4" d="M1020.1,300.5c-14.2,0-25.5-11.3-25.5-25.6c0-14.2,11.3-25.5,25.5-25.5c14.2,0,25.7,11.5,25.6,25.6
				C1045.6,289.3,1034.2,300.5,1020.1,300.5z"/>
		</g>
		<g>
			<path class="st4" d="M151.3,524.3c-8.7,0-17.3,0.1-26,0c-5.3,0-10-1.7-13.7-5.7c-3.3-3.6-4.5-8-4.5-12.8c0-6.4,0.6-12.7,2.6-18.8
				c1.9-6.1,4.9-11.6,10.7-15c3.1-1.8,6.4-2.5,9.9-2.5c1,0,2.1,0.5,3.1,1c1.6,0.9,3.1,2,4.7,2.9c8.9,5.5,17.8,5.5,26.6,0
				c0.9-0.6,1.9-1.1,2.8-1.8c3.4-2.8,7.2-2.4,11-1.3c6.7,2,10.7,6.9,13.3,13.1c3.2,7.7,4.2,15.9,3.8,24.2
				c-0.4,9.1-6.6,15.4-15.6,16.4c-2.3,0.2-4.6,0.2-6.9,0.3C165.9,524.3,158.6,524.3,151.3,524.3
				C151.3,524.3,151.3,524.3,151.3,524.3z"/>
			<path class="st4" d="M150.8,469.3c-14.2,0-25.5-11.3-25.5-25.6c0-14.2,11.3-25.5,25.5-25.5c14.2,0,25.7,11.5,25.6,25.6
				C176.2,458,164.9,469.3,150.8,469.3z"/>
		</g>
		<g>
			<path class="st4" d="M260,524.3c-8.7,0-17.3,0.1-26,0c-5.3,0-10-1.7-13.7-5.7c-3.3-3.6-4.5-8-4.5-12.8c0-6.4,0.6-12.7,2.6-18.8
				c1.9-6.1,4.9-11.6,10.7-15c3.1-1.8,6.4-2.5,9.9-2.5c1,0,2.1,0.5,3.1,1c1.6,0.9,3.1,2,4.7,2.9c8.9,5.5,17.8,5.5,26.6,0
				c0.9-0.6,1.9-1.1,2.8-1.8c3.4-2.8,7.2-2.4,11-1.3c6.7,2,10.7,6.9,13.3,13.1c3.2,7.7,4.2,15.9,3.8,24.2
				c-0.4,9.1-6.6,15.4-15.6,16.4c-2.3,0.2-4.6,0.2-6.9,0.3C274.5,524.3,267.3,524.3,260,524.3C260,524.3,260,524.3,260,524.3z"/>
			<path class="st4" d="M259.4,469.3c-14.2,0-25.5-11.3-25.5-25.6c0-14.2,11.3-25.5,25.5-25.5c14.2,0,25.7,11.5,25.6,25.6
				C284.9,458,273.6,469.3,259.4,469.3z"/>
		</g>
		<g>
			<path class="st4" d="M368.7,524.3c-8.7,0-17.3,0.1-26,0c-5.3,0-10-1.7-13.7-5.7c-3.3-3.6-4.5-8-4.5-12.8c0-6.4,0.6-12.7,2.6-18.8
				c1.9-6.1,4.9-11.6,10.7-15c3.1-1.8,6.4-2.5,9.9-2.5c1,0,2.1,0.5,3.1,1c1.6,0.9,3.1,2,4.7,2.9c8.9,5.5,17.8,5.5,26.6,0
				c0.9-0.6,1.9-1.1,2.8-1.8c3.4-2.8,7.2-2.4,11-1.3c6.7,2,10.7,6.9,13.3,13.1c3.2,7.7,4.2,15.9,3.8,24.2
				c-0.4,9.1-6.6,15.4-15.6,16.4c-2.3,0.2-4.6,0.2-6.9,0.3C383.2,524.3,375.9,524.3,368.7,524.3
				C368.7,524.3,368.7,524.3,368.7,524.3z"/>
			<path class="st4" d="M368.1,469.3c-14.2,0-25.5-11.3-25.5-25.6c0-14.2,11.3-25.5,25.5-25.5c14.2,0,25.7,11.5,25.6,25.6
				C393.6,458,382.2,469.3,368.1,469.3z"/>
		</g>
		<g>
			<path class="st4" d="M477.3,524.3c-8.7,0-17.3,0.1-26,0c-5.3,0-10-1.7-13.7-5.7c-3.3-3.6-4.5-8-4.5-12.8c0-6.4,0.6-12.7,2.6-18.8
				c1.9-6.1,4.9-11.6,10.7-15c3.1-1.8,6.4-2.5,9.9-2.5c1,0,2.1,0.5,3.1,1c1.6,0.9,3.1,2,4.7,2.9c8.9,5.5,17.8,5.5,26.6,0
				c0.9-0.6,1.9-1.1,2.8-1.8c3.4-2.8,7.2-2.4,11-1.3c6.7,2,10.7,6.9,13.3,13.1c3.2,7.7,4.2,15.9,3.8,24.2
				c-0.4,9.1-6.6,15.4-15.6,16.4c-2.3,0.2-4.6,0.2-6.9,0.3C491.9,524.3,484.6,524.3,477.3,524.3
				C477.3,524.3,477.3,524.3,477.3,524.3z"/>
			<path class="st4" d="M476.8,469.3c-14.2,0-25.5-11.3-25.5-25.6c0-14.2,11.3-25.5,25.5-25.5c14.2,0,25.7,11.5,25.6,25.6
				C502.2,458,490.9,469.3,476.8,469.3z"/>
		</g>
		<g>
			<path class="st4" d="M586,524.3c-8.7,0-17.3,0.1-26,0c-5.3,0-10-1.7-13.7-5.7c-3.3-3.6-4.5-8-4.5-12.8c0-6.4,0.6-12.7,2.6-18.8
				c1.9-6.1,4.9-11.6,10.7-15c3.1-1.8,6.4-2.5,9.9-2.5c1,0,2.1,0.5,3.1,1c1.6,0.9,3.1,2,4.7,2.9c8.9,5.5,17.8,5.5,26.6,0
				c0.9-0.6,1.9-1.1,2.8-1.8c3.4-2.8,7.2-2.4,11-1.3c6.7,2,10.7,6.9,13.3,13.1c3.2,7.7,4.2,15.9,3.8,24.2
				c-0.4,9.1-6.6,15.4-15.6,16.4c-2.3,0.2-4.6,0.2-6.9,0.3C600.5,524.3,593.3,524.3,586,524.3C586,524.3,586,524.3,586,524.3z"/>
			<path class="st4" d="M585.4,469.3c-14.2,0-25.5-11.3-25.5-25.6c0-14.2,11.3-25.5,25.5-25.5c14.2,0,25.7,11.5,25.6,25.6
				C610.9,458,599.6,469.3,585.4,469.3z"/>
		</g>
		<g>
			<path class="st4" d="M694.7,524.3c-8.7,0-17.3,0.1-26,0c-5.3,0-10-1.7-13.7-5.7c-3.3-3.6-4.5-8-4.5-12.8c0-6.4,0.6-12.7,2.6-18.8
				c1.9-6.1,4.9-11.6,10.7-15c3.1-1.8,6.4-2.5,9.9-2.5c1,0,2.1,0.5,3.1,1c1.6,0.9,3.1,2,4.7,2.9c8.9,5.5,17.8,5.5,26.6,0
				c0.9-0.6,1.9-1.1,2.8-1.8c3.4-2.8,7.2-2.4,11-1.3c6.7,2,10.7,6.9,13.3,13.1c3.2,7.7,4.2,15.9,3.8,24.2
				c-0.4,9.1-6.6,15.4-15.6,16.4c-2.3,0.2-4.6,0.2-6.9,0.3C709.2,524.3,701.9,524.3,694.7,524.3
				C694.7,524.3,694.7,524.3,694.7,524.3z"/>
			<path class="st4" d="M694.1,469.3c-14.2,0-25.5-11.3-25.5-25.6c0-14.2,11.3-25.5,25.5-25.5c14.2,0,25.7,11.5,25.6,25.6
				C719.6,458,708.2,469.3,694.1,469.3z"/>
		</g>
		<g>
			<path class="st4" d="M803.3,524.3c-8.7,0-17.3,0.1-26,0c-5.3,0-10-1.7-13.7-5.7c-3.3-3.6-4.5-8-4.5-12.8c0-6.4,0.6-12.7,2.6-18.8
				c1.9-6.1,4.9-11.6,10.7-15c3.1-1.8,6.4-2.5,9.9-2.5c1,0,2.1,0.5,3.1,1c1.6,0.9,3.1,2,4.7,2.9c8.9,5.5,17.8,5.5,26.6,0
				c0.9-0.6,1.9-1.1,2.8-1.8c3.4-2.8,7.2-2.4,11-1.3c6.7,2,10.7,6.9,13.3,13.1c3.2,7.7,4.2,15.9,3.8,24.2
				c-0.4,9.1-6.6,15.4-15.6,16.4c-2.3,0.2-4.6,0.2-6.9,0.3C817.9,524.3,810.6,524.3,803.3,524.3
				C803.3,524.3,803.3,524.3,803.3,524.3z"/>
			<path class="st4" d="M802.8,469.3c-14.2,0-25.5-11.3-25.5-25.6c0-14.2,11.3-25.5,25.5-25.5c14.2,0,25.7,11.5,25.6,25.6
				C828.2,458,816.9,469.3,802.8,469.3z"/>
		</g>
		<g>
			<path class="st3" d="M912,524.3c-8.7,0-17.3,0.1-26,0c-5.3,0-10-1.7-13.7-5.7c-3.3-3.6-4.5-8-4.5-12.8c0-6.4,0.6-12.7,2.6-18.8
				c1.9-6.1,4.9-11.6,10.7-15c3.1-1.8,6.4-2.5,9.9-2.5c1,0,2.1,0.5,3.1,1c1.6,0.9,3.1,2,4.7,2.9c8.9,5.5,17.8,5.5,26.6,0
				c0.9-0.6,1.9-1.1,2.8-1.8c3.4-2.8,7.2-2.4,11-1.3c6.7,2,10.7,6.9,13.3,13.1c3.2,7.7,4.2,15.9,3.8,24.2
				c-0.4,9.1-6.6,15.4-15.6,16.4c-2.3,0.2-4.6,0.2-6.9,0.3C926.5,524.3,919.3,524.3,912,524.3C912,524.3,912,524.3,912,524.3z"/>
			<path class="st3" d="M911.4,469.3c-14.2,0-25.5-11.3-25.5-25.6c0-14.2,11.3-25.5,25.5-25.5c14.2,0,25.7,11.5,25.6,25.6
				C936.9,458,925.6,469.3,911.4,469.3z"/>
		</g>
		<g>
			<path class="st2" d="M1020.7,524.3c-8.7,0-17.3,0.1-26,0c-5.3,0-10-1.7-13.7-5.7c-3.3-3.6-4.5-8-4.5-12.8
				c0-6.4,0.6-12.7,2.6-18.8c1.9-6.1,4.9-11.6,10.7-15c3.1-1.8,6.4-2.5,9.9-2.5c1,0,2.1,0.5,3.1,1c1.6,0.9,3.1,2,4.7,2.9
				c8.9,5.5,17.8,5.5,26.6,0c0.9-0.6,1.9-1.1,2.8-1.8c3.4-2.8,7.2-2.4,11-1.3c6.7,2,10.7,6.9,13.3,13.1c3.2,7.7,4.2,15.9,3.8,24.2
				c-0.4,9.1-6.6,15.4-15.6,16.4c-2.3,0.2-4.6,0.2-6.9,0.3C1035.2,524.3,1027.9,524.3,1020.7,524.3
				C1020.7,524.3,1020.7,524.3,1020.7,524.3z"/>
			<path class="st2" d="M1020.1,469.3c-14.2,0-25.5-11.3-25.5-25.6c0-14.2,11.3-25.5,25.5-25.5c14.2,0,25.7,11.5,25.6,25.6
				C1045.6,458,1034.2,469.3,1020.1,469.3z"/>
		</g>
		<g>
			<path class="st2" d="M151.3,693c-8.7,0-17.3,0.1-26,0c-5.3,0-10-1.7-13.7-5.7c-3.3-3.6-4.5-8-4.5-12.8c0-6.4,0.6-12.7,2.6-18.8
				c1.9-6.1,4.9-11.6,10.7-15c3.1-1.8,6.4-2.5,9.9-2.5c1,0,2.1,0.5,3.1,1c1.6,0.9,3.1,2,4.7,2.9c8.9,5.5,17.8,5.5,26.6,0
				c0.9-0.6,1.9-1.1,2.8-1.8c3.4-2.8,7.2-2.4,11-1.3c6.7,2,10.7,6.9,13.3,13.1c3.2,7.7,4.2,15.9,3.8,24.2
				c-0.4,9.1-6.6,15.4-15.6,16.4c-2.3,0.2-4.6,0.2-6.9,0.3C165.9,693,158.6,693,151.3,693C151.3,693,151.3,693,151.3,693z"/>
			<path class="st2" d="M150.8,638.1c-14.2,0-25.5-11.3-25.5-25.6c0-14.2,11.3-25.5,25.5-25.5c14.2,0,25.7,11.5,25.6,25.6
				C176.2,626.8,164.9,638.1,150.8,638.1z"/>
		</g>
		<g>
			<path class="st1" d="M260,693c-8.7,0-17.3,0.1-26,0c-5.3,0-10-1.7-13.7-5.7c-3.3-3.6-4.5-8-4.5-12.8c0-6.4,0.6-12.7,2.6-18.8
				c1.9-6.1,4.9-11.6,10.7-15c3.1-1.8,6.4-2.5,9.9-2.5c1,0,2.1,0.5,3.1,1c1.6,0.9,3.1,2,4.7,2.9c8.9,5.5,17.8,5.5,26.6,0
				c0.9-0.6,1.9-1.1,2.8-1.8c3.4-2.8,7.2-2.4,11-1.3c6.7,2,10.7,6.9,13.3,13.1c3.2,7.7,4.2,15.9,3.8,24.2
				c-0.4,9.1-6.6,15.4-15.6,16.4c-2.3,0.2-4.6,0.2-6.9,0.3C274.5,693,267.3,693,260,693C260,693,260,693,260,693z"/>
			<path class="st1" d="M259.4,638.1c-14.2,0-25.5-11.3-25.5-25.6c0-14.2,11.3-25.5,25.5-25.5c14.2,0,25.7,11.5,25.6,25.6
				C284.9,626.8,273.6,638.1,259.4,638.1z"/>
		</g>
		<g>
			<path class="st1" d="M368.7,693c-8.7,0-17.3,0.1-26,0c-5.3,0-10-1.7-13.7-5.7c-3.3-3.6-4.5-8-4.5-12.8c0-6.4,0.6-12.7,2.6-18.8
				c1.9-6.1,4.9-11.6,10.7-15c3.1-1.8,6.4-2.5,9.9-2.5c1,0,2.1,0.5,3.1,1c1.6,0.9,3.1,2,4.7,2.9c8.9,5.5,17.8,5.5,26.6,0
				c0.9-0.6,1.9-1.1,2.8-1.8c3.4-2.8,7.2-2.4,11-1.3c6.7,2,10.7,6.9,13.3,13.1c3.2,7.7,4.2,15.9,3.8,24.2
				c-0.4,9.1-6.6,15.4-15.6,16.4c-2.3,0.2-4.6,0.2-6.9,0.3C383.2,693,375.9,693,368.7,693C368.7,693,368.7,693,368.7,693z"/>
			<path class="st1" d="M368.1,638.1c-14.2,0-25.5-11.3-25.5-25.6c0-14.2,11.3-25.5,25.5-25.5c14.2,0,25.7,11.5,25.6,25.6
				C393.6,626.8,382.2,638.1,368.1,638.1z"/>
		</g>
		<g>
			<path class="st1" d="M477.3,693c-8.7,0-17.3,0.1-26,0c-5.3,0-10-1.7-13.7-5.7c-3.3-3.6-4.5-8-4.5-12.8c0-6.4,0.6-12.7,2.6-18.8
				c1.9-6.1,4.9-11.6,10.7-15c3.1-1.8,6.4-2.5,9.9-2.5c1,0,2.1,0.5,3.1,1c1.6,0.9,3.1,2,4.7,2.9c8.9,5.5,17.8,5.5,26.6,0
				c0.9-0.6,1.9-1.1,2.8-1.8c3.4-2.8,7.2-2.4,11-1.3c6.7,2,10.7,6.9,13.3,13.1c3.2,7.7,4.2,15.9,3.8,24.2
				c-0.4,9.1-6.6,15.4-15.6,16.4c-2.3,0.2-4.6,0.2-6.9,0.3C491.9,693,484.6,693,477.3,693C477.3,693,477.3,693,477.3,693z"/>
			<path class="st1" d="M476.8,638.1c-14.2,0-25.5-11.3-25.5-25.6c0-14.2,11.3-25.5,25.5-25.5c14.2,0,25.7,11.5,25.6,25.6
				C502.2,626.8,490.9,638.1,476.8,638.1z"/>
		</g>
		<g>
			<path class="st1" d="M586,693c-8.7,0-17.3,0.1-26,0c-5.3,0-10-1.7-13.7-5.7c-3.3-3.6-4.5-8-4.5-12.8c0-6.4,0.6-12.7,2.6-18.8
				c1.9-6.1,4.9-11.6,10.7-15c3.1-1.8,6.4-2.5,9.9-2.5c1,0,2.1,0.5,3.1,1c1.6,0.9,3.1,2,4.7,2.9c8.9,5.5,17.8,5.5,26.6,0
				c0.9-0.6,1.9-1.1,2.8-1.8c3.4-2.8,7.2-2.4,11-1.3c6.7,2,10.7,6.9,13.3,13.1c3.2,7.7,4.2,15.9,3.8,24.2
				c-0.4,9.1-6.6,15.4-15.6,16.4c-2.3,0.2-4.6,0.2-6.9,0.3C600.5,693,593.3,693,586,693C586,693,586,693,586,693z"/>
			<path class="st1" d="M585.4,638.1c-14.2,0-25.5-11.3-25.5-25.6c0-14.2,11.3-25.5,25.5-25.5c14.2,0,25.7,11.5,25.6,25.6
				C610.9,626.8,599.6,638.1,585.4,638.1z"/>
		</g>
		<g>
			<path class="st1" d="M694.7,693c-8.7,0-17.3,0.1-26,0c-5.3,0-10-1.7-13.7-5.7c-3.3-3.6-4.5-8-4.5-12.8c0-6.4,0.6-12.7,2.6-18.8
				c1.9-6.1,4.9-11.6,10.7-15c3.1-1.8,6.4-2.5,9.9-2.5c1,0,2.1,0.5,3.1,1c1.6,0.9,3.1,2,4.7,2.9c8.9,5.5,17.8,5.5,26.6,0
				c0.9-0.6,1.9-1.1,2.8-1.8c3.4-2.8,7.2-2.4,11-1.3c6.7,2,10.7,6.9,13.3,13.1c3.2,7.7,4.2,15.9,3.8,24.2
				c-0.4,9.1-6.6,15.4-15.6,16.4c-2.3,0.2-4.6,0.2-6.9,0.3C709.2,693,701.9,693,694.7,693C694.7,693,694.7,693,694.7,693z"/>
			<path class="st1" d="M694.1,638.1c-14.2,0-25.5-11.3-25.5-25.6c0-14.2,11.3-25.5,25.5-25.5c14.2,0,25.7,11.5,25.6,25.6
				C719.6,626.8,708.2,638.1,694.1,638.1z"/>
		</g>
		<g>
			<path class="st1" d="M803.3,693c-8.7,0-17.3,0.1-26,0c-5.3,0-10-1.7-13.7-5.7c-3.3-3.6-4.5-8-4.5-12.8c0-6.4,0.6-12.7,2.6-18.8
				c1.9-6.1,4.9-11.6,10.7-15c3.1-1.8,6.4-2.5,9.9-2.5c1,0,2.1,0.5,3.1,1c1.6,0.9,3.1,2,4.7,2.9c8.9,5.5,17.8,5.5,26.6,0
				c0.9-0.6,1.9-1.1,2.8-1.8c3.4-2.8,7.2-2.4,11-1.3c6.7,2,10.7,6.9,13.3,13.1c3.2,7.7,4.2,15.9,3.8,24.2
				c-0.4,9.1-6.6,15.4-15.6,16.4c-2.3,0.2-4.6,0.2-6.9,0.3C817.9,693,810.6,693,803.3,693C803.3,693,803.3,693,803.3,693z"/>
			<path class="st1" d="M802.8,638.1c-14.2,0-25.5-11.3-25.5-25.6c0-14.2,11.3-25.5,25.5-25.5c14.2,0,25.7,11.5,25.6,25.6
				C828.2,626.8,816.9,638.1,802.8,638.1z"/>
		</g>
		<g>
			<path class="st1" d="M912,693c-8.7,0-17.3,0.1-26,0c-5.3,0-10-1.7-13.7-5.7c-3.3-3.6-4.5-8-4.5-12.8c0-6.4,0.6-12.7,2.6-18.8
				c1.9-6.1,4.9-11.6,10.7-15c3.1-1.8,6.4-2.5,9.9-2.5c1,0,2.1,0.5,3.1,1c1.6,0.9,3.1,2,4.7,2.9c8.9,5.5,17.8,5.5,26.6,0
				c0.9-0.6,1.9-1.1,2.8-1.8c3.4-2.8,7.2-2.4,11-1.3c6.7,2,10.7,6.9,13.3,13.1c3.2,7.7,4.2,15.9,3.8,24.2
				c-0.4,9.1-6.6,15.4-15.6,16.4c-2.3,0.2-4.6,0.2-6.9,0.3C926.5,693,919.3,693,912,693C912,693,912,693,912,693z"/>
			<path class="st1" d="M911.4,638.1c-14.2,0-25.5-11.3-25.5-25.6c0-14.2,11.3-25.5,25.5-25.5c14.2,0,25.7,11.5,25.6,25.6
				C936.9,626.8,925.6,638.1,911.4,638.1z"/>
		</g>
		<g>
			<path class="st1" d="M1020.7,693c-8.7,0-17.3,0.1-26,0c-5.3,0-10-1.7-13.7-5.7c-3.3-3.6-4.5-8-4.5-12.8c0-6.4,0.6-12.7,2.6-18.8
				c1.9-6.1,4.9-11.6,10.7-15c3.1-1.8,6.4-2.5,9.9-2.5c1,0,2.1,0.5,3.1,1c1.6,0.9,3.1,2,4.7,2.9c8.9,5.5,17.8,5.5,26.6,0
				c0.9-0.6,1.9-1.1,2.8-1.8c3.4-2.8,7.2-2.4,11-1.3c6.7,2,10.7,6.9,13.3,13.1c3.2,7.7,4.2,15.9,3.8,24.2
				c-0.4,9.1-6.6,15.4-15.6,16.4c-2.3,0.2-4.6,0.2-6.9,0.3C1035.2,693,1027.9,693,1020.7,693C1020.7,693,1020.7,693,1020.7,693z"/>
			<path class="st1" d="M1020.1,638.1c-14.2,0-25.5-11.3-25.5-25.6c0-14.2,11.3-25.5,25.5-25.5c14.2,0,25.7,11.5,25.6,25.6
				C1045.6,626.8,1034.2,638.1,1020.1,638.1z"/>
		</g>
		<g>
			<path class="st0" d="M151.3,861.8c-8.7,0-17.3,0.1-26,0c-5.3,0-10-1.7-13.7-5.7c-3.3-3.6-4.5-8-4.5-12.8c0-6.4,0.6-12.7,2.6-18.8
				c1.9-6.1,4.9-11.6,10.7-15c3.1-1.8,6.4-2.5,9.9-2.5c1,0,2.1,0.5,3.1,1c1.6,0.9,3.1,2,4.7,2.9c8.9,5.5,17.8,5.5,26.6,0
				c0.9-0.6,1.9-1.1,2.8-1.8c3.4-2.8,7.2-2.4,11-1.3c6.7,2,10.7,6.9,13.3,13.1c3.2,7.7,4.2,15.9,3.8,24.2
				c-0.4,9.1-6.6,15.4-15.6,16.4c-2.3,0.2-4.6,0.2-6.9,0.3C165.9,861.8,158.6,861.8,151.3,861.8
				C151.3,861.8,151.3,861.8,151.3,861.8z"/>
			<path class="st0" d="M150.8,806.8c-14.2,0-25.5-11.3-25.5-25.6c0-14.2,11.3-25.5,25.5-25.5c14.2,0,25.7,11.5,25.6,25.6
				C176.2,795.5,164.9,806.8,150.8,806.8z"/>
		</g>
		<g>
			<path class="st0" d="M260,861.8c-8.7,0-17.3,0.1-26,0c-5.3,0-10-1.7-13.7-5.7c-3.3-3.6-4.5-8-4.5-12.8c0-6.4,0.6-12.7,2.6-18.8
				c1.9-6.1,4.9-11.6,10.7-15c3.1-1.8,6.4-2.5,9.9-2.5c1,0,2.1,0.5,3.1,1c1.6,0.9,3.1,2,4.7,2.9c8.9,5.5,17.8,5.5,26.6,0
				c0.9-0.6,1.9-1.1,2.8-1.8c3.4-2.8,7.2-2.4,11-1.3c6.7,2,10.7,6.9,13.3,13.1c3.2,7.7,4.2,15.9,3.8,24.2
				c-0.4,9.1-6.6,15.4-15.6,16.4c-2.3,0.2-4.6,0.2-6.9,0.3C274.5,861.8,267.3,861.8,260,861.8C260,861.8,260,861.8,260,861.8z"/>
			<path class="st0" d="M259.4,806.8c-14.2,0-25.5-11.3-25.5-25.6c0-14.2,11.3-25.5,25.5-25.5c14.2,0,25.7,11.5,25.6,25.6
				C284.9,795.5,273.6,806.8,259.4,806.8z"/>
		</g>
		<g>
			<path class="st0" d="M368.7,861.8c-8.7,0-17.3,0.1-26,0c-5.3,0-10-1.7-13.7-5.7c-3.3-3.6-4.5-8-4.5-12.8c0-6.4,0.6-12.7,2.6-18.8
				c1.9-6.1,4.9-11.6,10.7-15c3.1-1.8,6.4-2.5,9.9-2.5c1,0,2.1,0.5,3.1,1c1.6,0.9,3.1,2,4.7,2.9c8.9,5.5,17.8,5.5,26.6,0
				c0.9-0.6,1.9-1.1,2.8-1.8c3.4-2.8,7.2-2.4,11-1.3c6.7,2,10.7,6.9,13.3,13.1c3.2,7.7,4.2,15.9,3.8,24.2
				c-0.4,9.1-6.6,15.4-15.6,16.4c-2.3,0.2-4.6,0.2-6.9,0.3C383.2,861.8,375.9,861.8,368.7,861.8
				C368.7,861.8,368.7,861.8,368.7,861.8z"/>
			<path class="st0" d="M368.1,806.8c-14.2,0-25.5-11.3-25.5-25.6c0-14.2,11.3-25.5,25.5-25.5c14.2,0,25.7,11.5,25.6,25.6
				C393.6,795.5,382.2,806.8,368.1,806.8z"/>
		</g>
		<g>
			<path class="st0" d="M477.3,861.8c-8.7,0-17.3,0.1-26,0c-5.3,0-10-1.7-13.7-5.7c-3.3-3.6-4.5-8-4.5-12.8c0-6.4,0.6-12.7,2.6-18.8
				c1.9-6.1,4.9-11.6,10.7-15c3.1-1.8,6.4-2.5,9.9-2.5c1,0,2.1,0.5,3.1,1c1.6,0.9,3.1,2,4.7,2.9c8.9,5.5,17.8,5.5,26.6,0
				c0.9-0.6,1.9-1.1,2.8-1.8c3.4-2.8,7.2-2.4,11-1.3c6.7,2,10.7,6.9,13.3,13.1c3.2,7.7,4.2,15.9,3.8,24.2
				c-0.4,9.1-6.6,15.4-15.6,16.4c-2.3,0.2-4.6,0.2-6.9,0.3C491.9,861.8,484.6,861.8,477.3,861.8
				C477.3,861.8,477.3,861.8,477.3,861.8z"/>
			<path class="st0" d="M476.8,806.8c-14.2,0-25.5-11.3-25.5-25.6c0-14.2,11.3-25.5,25.5-25.5c14.2,0,25.7,11.5,25.6,25.6
				C502.2,795.5,490.9,806.8,476.8,806.8z"/>
		</g>
		<g>
			<path class="st0" d="M586,861.8c-8.7,0-17.3,0.1-26,0c-5.3,0-10-1.7-13.7-5.7c-3.3-3.6-4.5-8-4.5-12.8c0-6.4,0.6-12.7,2.6-18.8
				c1.9-6.1,4.9-11.6,10.7-15c3.1-1.8,6.4-2.5,9.9-2.5c1,0,2.1,0.5,3.1,1c1.6,0.9,3.1,2,4.7,2.9c8.9,5.5,17.8,5.5,26.6,0
				c0.9-0.6,1.9-1.1,2.8-1.8c3.4-2.8,7.2-2.4,11-1.3c6.7,2,10.7,6.9,13.3,13.1c3.2,7.7,4.2,15.9,3.8,24.2
				c-0.4,9.1-6.6,15.4-15.6,16.4c-2.3,0.2-4.6,0.2-6.9,0.3C600.5,861.8,593.3,861.8,586,861.8C586,861.8,586,861.8,586,861.8z"/>
			<path class="st0" d="M585.4,806.8c-14.2,0-25.5-11.3-25.5-25.6c0-14.2,11.3-25.5,25.5-25.5c14.2,0,25.7,11.5,25.6,25.6
				C610.9,795.5,599.6,806.8,585.4,806.8z"/>
		</g>
		<g>
			<path class="st0" d="M694.7,861.8c-8.7,0-17.3,0.1-26,0c-5.3,0-10-1.7-13.7-5.7c-3.3-3.6-4.5-8-4.5-12.8c0-6.4,0.6-12.7,2.6-18.8
				c1.9-6.1,4.9-11.6,10.7-15c3.1-1.8,6.4-2.5,9.9-2.5c1,0,2.1,0.5,3.1,1c1.6,0.9,3.1,2,4.7,2.9c8.9,5.5,17.8,5.5,26.6,0
				c0.9-0.6,1.9-1.1,2.8-1.8c3.4-2.8,7.2-2.4,11-1.3c6.7,2,10.7,6.9,13.3,13.1c3.2,7.7,4.2,15.9,3.8,24.2
				c-0.4,9.1-6.6,15.4-15.6,16.4c-2.3,0.2-4.6,0.2-6.9,0.3C709.2,861.8,701.9,861.8,694.7,861.8
				C694.7,861.8,694.7,861.8,694.7,861.8z"/>
			<path class="st0" d="M694.1,806.8c-14.2,0-25.5-11.3-25.5-25.6c0-14.2,11.3-25.5,25.5-25.5c14.2,0,25.7,11.5,25.6,25.6
				C719.6,795.5,708.2,806.8,694.1,806.8z"/>
		</g>
		<g>
			<path d="M803.3,861.8c-8.7,0-17.3,0.1-26,0c-5.3,0-10-1.7-13.7-5.7c-3.3-3.6-4.5-8-4.5-12.8c0-6.4,0.6-12.7,2.6-18.8
				c1.9-6.1,4.9-11.6,10.7-15c3.1-1.8,6.4-2.5,9.9-2.5c1,0,2.1,0.5,3.1,1c1.6,0.9,3.1,2,4.7,2.9c8.9,5.5,17.8,5.5,26.6,0
				c0.9-0.6,1.9-1.1,2.8-1.8c3.4-2.8,7.2-2.4,11-1.3c6.7,2,10.7,6.9,13.3,13.1c3.2,7.7,4.2,15.9,3.8,24.2
				c-0.4,9.1-6.6,15.4-15.6,16.4c-2.3,0.2-4.6,0.2-6.9,0.3C817.9,861.8,810.6,861.8,803.3,861.8
				C803.3,861.8,803.3,861.8,803.3,861.8z"/>
			<path d="M802.8,806.8c-14.2,0-25.5-11.3-25.5-25.6c0-14.2,11.3-25.5,25.5-25.5c14.2,0,25.7,11.5,25.6,25.6
				C828.2,795.5,816.9,806.8,802.8,806.8z"/>
		</g>
		<g>
			<path d="M912,861.8c-8.7,0-17.3,0.1-26,0c-5.3,0-10-1.7-13.7-5.7c-3.3-3.6-4.5-8-4.5-12.8c0-6.4,0.6-12.7,2.6-18.8
				c1.9-6.1,4.9-11.6,10.7-15c3.1-1.8,6.4-2.5,9.9-2.5c1,0,2.1,0.5,3.1,1c1.6,0.9,3.1,2,4.7,2.9c8.9,5.5,17.8,5.5,26.6,0
				c0.9-0.6,1.9-1.1,2.8-1.8c3.4-2.8,7.2-2.4,11-1.3c6.7,2,10.7,6.9,13.3,13.1c3.2,7.7,4.2,15.9,3.8,24.2
				c-0.4,9.1-6.6,15.4-15.6,16.4c-2.3,0.2-4.6,0.2-6.9,0.3C926.5,861.8,919.3,861.8,912,861.8C912,861.8,912,861.8,912,861.8z"/>
			<path d="M911.4,806.8c-14.2,0-25.5-11.3-25.5-25.6c0-14.2,11.3-25.5,25.5-25.5c14.2,0,25.7,11.5,25.6,25.6
				C936.9,795.5,925.6,806.8,911.4,806.8z"/>
		</g>
		<g>
			<path d="M1020.7,861.8c-8.7,0-17.3,0.1-26,0c-5.3,0-10-1.7-13.7-5.7c-3.3-3.6-4.5-8-4.5-12.8c0-6.4,0.6-12.7,2.6-18.8
				c1.9-6.1,4.9-11.6,10.7-15c3.1-1.8,6.4-2.5,9.9-2.5c1,0,2.1,0.5,3.1,1c1.6,0.9,3.1,2,4.7,2.9c8.9,5.5,17.8,5.5,26.6,0
				c0.9-0.6,1.9-1.1,2.8-1.8c3.4-2.8,7.2-2.4,11-1.3c6.7,2,10.7,6.9,13.3,13.1c3.2,7.7,4.2,15.9,3.8,24.2
				c-0.4,9.1-6.6,15.4-15.6,16.4c-2.3,0.2-4.6,0.2-6.9,0.3C1035.2,861.8,1027.9,861.8,1020.7,861.8
				C1020.7,861.8,1020.7,861.8,1020.7,861.8z"/>
			<path d="M1020.1,806.8c-14.2,0-25.5-11.3-25.5-25.6c0-14.2,11.3-25.5,25.5-25.5c14.2,0,25.7,11.5,25.6,25.6
				C1045.6,795.5,1034.2,806.8,1020.1,806.8z"/>
		</g>
		<g>
			<path d="M151.3,1030.5c-8.7,0-17.3,0.1-26,0c-5.3,0-10-1.7-13.7-5.7c-3.3-3.6-4.5-8-4.5-12.8c0-6.4,0.6-12.7,2.6-18.8
				c1.9-6.1,4.9-11.6,10.7-15c3.1-1.8,6.4-2.5,9.9-2.5c1,0,2.1,0.5,3.1,1c1.6,0.9,3.1,2,4.7,2.9c8.9,5.5,17.8,5.5,26.6,0
				c0.9-0.6,1.9-1.1,2.8-1.8c3.4-2.8,7.2-2.4,11-1.3c6.7,2,10.7,6.9,13.3,13.1c3.2,7.7,4.2,15.9,3.8,24.2
				c-0.4,9.1-6.6,15.4-15.6,16.4c-2.3,0.2-4.6,0.2-6.9,0.3C165.9,1030.5,158.6,1030.5,151.3,1030.5
				C151.3,1030.5,151.3,1030.5,151.3,1030.5z"/>
			<path d="M150.8,975.6c-14.2,0-25.5-11.3-25.5-25.6c0-14.2,11.3-25.5,25.5-25.5c14.2,0,25.7,11.5,25.6,25.6
				C176.2,964.3,164.9,975.6,150.8,975.6z"/>
		</g>
		<g>
			<path d="M260,1030.5c-8.7,0-17.3,0.1-26,0c-5.3,0-10-1.7-13.7-5.7c-3.3-3.6-4.5-8-4.5-12.8c0-6.4,0.6-12.7,2.6-18.8
				c1.9-6.1,4.9-11.6,10.7-15c3.1-1.8,6.4-2.5,9.9-2.5c1,0,2.1,0.5,3.1,1c1.6,0.9,3.1,2,4.7,2.9c8.9,5.5,17.8,5.5,26.6,0
				c0.9-0.6,1.9-1.1,2.8-1.8c3.4-2.8,7.2-2.4,11-1.3c6.7,2,10.7,6.9,13.3,13.1c3.2,7.7,4.2,15.9,3.8,24.2
				c-0.4,9.1-6.6,15.4-15.6,16.4c-2.3,0.2-4.6,0.2-6.9,0.3C274.5,1030.5,267.3,1030.5,260,1030.5C260,1030.5,260,1030.5,260,1030.5z
				"/>
			<path d="M259.4,975.6c-14.2,0-25.5-11.3-25.5-25.6c0-14.2,11.3-25.5,25.5-25.5c14.2,0,25.7,11.5,25.6,25.6
				C284.9,964.3,273.6,975.6,259.4,975.6z"/>
		</g>
		<g>
			<path d="M368.7,1030.5c-8.7,0-17.3,0.1-26,0c-5.3,0-10-1.7-13.7-5.7c-3.3-3.6-4.5-8-4.5-12.8c0-6.4,0.6-12.7,2.6-18.8
				c1.9-6.1,4.9-11.6,10.7-15c3.1-1.8,6.4-2.5,9.9-2.5c1,0,2.1,0.5,3.1,1c1.6,0.9,3.1,2,4.7,2.9c8.9,5.5,17.8,5.5,26.6,0
				c0.9-0.6,1.9-1.1,2.8-1.8c3.4-2.8,7.2-2.4,11-1.3c6.7,2,10.7,6.9,13.3,13.1c3.2,7.7,4.2,15.9,3.8,24.2
				c-0.4,9.1-6.6,15.4-15.6,16.4c-2.3,0.2-4.6,0.2-6.9,0.3C383.2,1030.5,375.9,1030.5,368.7,1030.5
				C368.7,1030.5,368.7,1030.5,368.7,1030.5z"/>
			<path d="M368.1,975.6c-14.2,0-25.5-11.3-25.5-25.6c0-14.2,11.3-25.5,25.5-25.5c14.2,0,25.7,11.5,25.6,25.6
				C393.6,964.3,382.2,975.6,368.1,975.6z"/>
		</g>
		<g>
			<path d="M477.3,1030.5c-8.7,0-17.3,0.1-26,0c-5.3,0-10-1.7-13.7-5.7c-3.3-3.6-4.5-8-4.5-12.8c0-6.4,0.6-12.7,2.6-18.8
				c1.9-6.1,4.9-11.6,10.7-15c3.1-1.8,6.4-2.5,9.9-2.5c1,0,2.1,0.5,3.1,1c1.6,0.9,3.1,2,4.7,2.9c8.9,5.5,17.8,5.5,26.6,0
				c0.9-0.6,1.9-1.1,2.8-1.8c3.4-2.8,7.2-2.4,11-1.3c6.7,2,10.7,6.9,13.3,13.1c3.2,7.7,4.2,15.9,3.8,24.2
				c-0.4,9.1-6.6,15.4-15.6,16.4c-2.3,0.2-4.6,0.2-6.9,0.3C491.9,1030.5,484.6,1030.5,477.3,1030.5
				C477.3,1030.5,477.3,1030.5,477.3,1030.5z"/>
			<path d="M476.8,975.6c-14.2,0-25.5-11.3-25.5-25.6c0-14.2,11.3-25.5,25.5-25.5c14.2,0,25.7,11.5,25.6,25.6
				C502.2,964.3,490.9,975.6,476.8,975.6z"/>
		</g>
		<g>
			<path d="M586,1030.5c-8.7,0-17.3,0.1-26,0c-5.3,0-10-1.7-13.7-5.7c-3.3-3.6-4.5-8-4.5-12.8c0-6.4,0.6-12.7,2.6-18.8
				c1.9-6.1,4.9-11.6,10.7-15c3.1-1.8,6.4-2.5,9.9-2.5c1,0,2.1,0.5,3.1,1c1.6,0.9,3.1,2,4.7,2.9c8.9,5.5,17.8,5.5,26.6,0
				c0.9-0.6,1.9-1.1,2.8-1.8c3.4-2.8,7.2-2.4,11-1.3c6.7,2,10.7,6.9,13.3,13.1c3.2,7.7,4.2,15.9,3.8,24.2
				c-0.4,9.1-6.6,15.4-15.6,16.4c-2.3,0.2-4.6,0.2-6.9,0.3C600.5,1030.5,593.3,1030.5,586,1030.5C586,1030.5,586,1030.5,586,1030.5z
				"/>
			<path d="M585.4,975.6c-14.2,0-25.5-11.3-25.5-25.6c0-14.2,11.3-25.5,25.5-25.5c14.2,0,25.7,11.5,25.6,25.6
				C610.9,964.3,599.6,975.6,585.4,975.6z"/>
		</g>
		<g>
			<path d="M694.7,1030.5c-8.7,0-17.3,0.1-26,0c-5.3,0-10-1.7-13.7-5.7c-3.3-3.6-4.5-8-4.5-12.8c0-6.4,0.6-12.7,2.6-18.8
				c1.9-6.1,4.9-11.6,10.7-15c3.1-1.8,6.4-2.5,9.9-2.5c1,0,2.1,0.5,3.1,1c1.6,0.9,3.1,2,4.7,2.9c8.9,5.5,17.8,5.5,26.6,0
				c0.9-0.6,1.9-1.1,2.8-1.8c3.4-2.8,7.2-2.4,11-1.3c6.7,2,10.7,6.9,13.3,13.1c3.2,7.7,4.2,15.9,3.8,24.2
				c-0.4,9.1-6.6,15.4-15.6,16.4c-2.3,0.2-4.6,0.2-6.9,0.3C709.2,1030.5,701.9,1030.5,694.7,1030.5
				C694.7,1030.5,694.7,1030.5,694.7,1030.5z"/>
			<path d="M694.1,975.6c-14.2,0-25.5-11.3-25.5-25.6c0-14.2,11.3-25.5,25.5-25.5c14.2,0,25.7,11.5,25.6,25.6
				C719.6,964.3,708.2,975.6,694.1,975.6z"/>
		</g>
		<g>
			<path d="M803.3,1030.5c-8.7,0-17.3,0.1-26,0c-5.3,0-10-1.7-13.7-5.7c-3.3-3.6-4.5-8-4.5-12.8c0-6.4,0.6-12.7,2.6-18.8
				c1.9-6.1,4.9-11.6,10.7-15c3.1-1.8,6.4-2.5,9.9-2.5c1,0,2.1,0.5,3.1,1c1.6,0.9,3.1,2,4.7,2.9c8.9,5.5,17.8,5.5,26.6,0
				c0.9-0.6,1.9-1.1,2.8-1.8c3.4-2.8,7.2-2.4,11-1.3c6.7,2,10.7,6.9,13.3,13.1c3.2,7.7,4.2,15.9,3.8,24.2
				c-0.4,9.1-6.6,15.4-15.6,16.4c-2.3,0.2-4.6,0.2-6.9,0.3C817.9,1030.5,810.6,1030.5,803.3,1030.5
				C803.3,1030.5,803.3,1030.5,803.3,1030.5z"/>
			<path d="M802.8,975.6c-14.2,0-25.5-11.3-25.5-25.6c0-14.2,11.3-25.5,25.5-25.5c14.2,0,25.7,11.5,25.6,25.6
				C828.2,964.3,816.9,975.6,802.8,975.6z"/>
		</g>
		<g>
			<path d="M912,1030.5c-8.7,0-17.3,0.1-26,0c-5.3,0-10-1.7-13.7-5.7c-3.3-3.6-4.5-8-4.5-12.8c0-6.4,0.6-12.7,2.6-18.8
				c1.9-6.1,4.9-11.6,10.7-15c3.1-1.8,6.4-2.5,9.9-2.5c1,0,2.1,0.5,3.1,1c1.6,0.9,3.1,2,4.7,2.9c8.9,5.5,17.8,5.5,26.6,0
				c0.9-0.6,1.9-1.1,2.8-1.8c3.4-2.8,7.2-2.4,11-1.3c6.7,2,10.7,6.9,13.3,13.1c3.2,7.7,4.2,15.9,3.8,24.2
				c-0.4,9.1-6.6,15.4-15.6,16.4c-2.3,0.2-4.6,0.2-6.9,0.3C926.5,1030.5,919.3,1030.5,912,1030.5C912,1030.5,912,1030.5,912,1030.5z
				"/>
			<path d="M911.4,975.6c-14.2,0-25.5-11.3-25.5-25.6c0-14.2,11.3-25.5,25.5-25.5c14.2,0,25.7,11.5,25.6,25.6
				C936.9,964.3,925.6,975.6,911.4,975.6z"/>
		</g>
		<g>
			<path d="M1020.7,1030.5c-8.7,0-17.3,0.1-26,0c-5.3,0-10-1.7-13.7-5.7c-3.3-3.6-4.5-8-4.5-12.8c0-6.4,0.6-12.7,2.6-18.8
				c1.9-6.1,4.9-11.6,10.7-15c3.1-1.8,6.4-2.5,9.9-2.5c1,0,2.1,0.5,3.1,1c1.6,0.9,3.1,2,4.7,2.9c8.9,5.5,17.8,5.5,26.6,0
				c0.9-0.6,1.9-1.1,2.8-1.8c3.4-2.8,7.2-2.4,11-1.3c6.7,2,10.7,6.9,13.3,13.1c3.2,7.7,4.2,15.9,3.8,24.2
				c-0.4,9.1-6.6,15.4-15.6,16.4c-2.3,0.2-4.6,0.2-6.9,0.3C1035.2,1030.5,1027.9,1030.5,1020.7,1030.5
				C1020.7,1030.5,1020.7,1030.5,1020.7,1030.5z"/>
			<path d="M1020.1,975.6c-14.2,0-25.5-11.3-25.5-25.6c0-14.2,11.3-25.5,25.5-25.5c14.2,0,25.7,11.5,25.6,25.6
				C1045.6,964.3,1034.2,975.6,1020.1,975.6z"/>
		</g>
	</g>
	<g>
		<rect x="1153.6" y="200.4" class="st4" width="49.3" height="49.3"/>
		<g>
			<g>
				<path d="M1251.9,212.8c0.6,2.7,2.4,4.3,5.7,4.3c3.7,0,5.1-1.9,5.1-4.1c0-2.3-1-3.7-5.5-4.8c-4.3-1.1-6.1-2.5-6.1-5.4
					c0-2.7,1.9-5.2,6.3-5.2c4.5,0,6.4,2.7,6.6,5.2h-1.6c-0.5-2.2-1.9-3.7-5.1-3.7c-2.9,0-4.5,1.4-4.5,3.6c0,2.2,1.3,3.1,5.1,4
					c5.7,1.4,6.6,3.7,6.6,6.1c0,3-2.2,5.6-6.9,5.6c-5.1,0-6.9-3-7.3-5.7H1251.9z"/>
				<path d="M1280.1,211c0,4-2.2,7.6-6.6,7.6c-3.9,0-6.4-3.2-6.4-7.6c0-4.1,2.3-7.6,6.5-7.6C1277.5,203.4,1280.1,206.5,1280.1,211z
					 M1268.7,211c0,3.5,1.9,6.2,4.9,6.2c3.1,0,4.9-2.6,4.9-6.2c0-3.4-1.7-6.2-5-6.2C1270.3,204.8,1268.7,207.6,1268.7,211z"/>
				<path d="M1283.7,196.9h1.5v9.3c0.7-1.5,2.1-2.8,5-2.8c3.4,0,5.9,2.8,5.9,7.3c0,4.6-2.3,7.9-6.3,7.9c-2.4,0-3.8-1-4.6-2.6
					c0,0.9,0,1.9-0.1,2.3h-1.4c0-1.7,0-3.3,0-5V196.9z M1294.5,210.8c0-3.6-1.8-5.9-4.6-5.9c-3.6,0-4.9,2.5-4.9,6.3
					c0,3.4,1.1,6.2,4.7,6.2C1292.7,217.3,1294.5,214.8,1294.5,210.8z"/>
				<path d="M1299.6,207.7c0-2.4,0-3.5,0-3.9h1.4c0,0.5,0.1,1.4,0.1,3.2c0.8-2.2,2.7-3.5,5-3.6v1.6c-3,0.2-5,2.3-5,5.7v7.5h-1.5
					V207.7z"/>
				<path d="M1309.4,211.2c0,3.7,1.9,6.1,4.7,6.1c2.7,0,3.7-1.5,4.2-2.7h1.5c-0.6,1.9-2.1,4.1-5.7,4.1c-4.4,0-6.1-3.8-6.1-7.5
					c0-4.1,2.1-7.7,6.3-7.7c4.5,0,5.9,3.9,5.9,6.6c0,0.4,0,0.8,0,1.2H1309.4z M1318.5,209.9c0-2.9-1.6-5.1-4.4-5.1
					c-3,0-4.4,2.1-4.7,5.1H1318.5z"/>
				<path d="M1323.2,203.8c2.3,6.6,4,11.2,4.5,13h0c0.3-1.1,1.9-5.4,4.8-13h1.5l-5.5,14.5h-1.7l-5.2-14.5H1323.2z"/>
				<path d="M1336.9,196.9h1.5v2.8h-1.5V196.9z M1336.9,203.8h1.5v14.5h-1.5V203.8z"/>
				<path d="M1342.7,203.8c2.3,6.6,4,11.2,4.5,13h0c0.3-1.1,1.9-5.4,4.8-13h1.5l-5.5,14.5h-1.7l-5.2-14.5H1342.7z"/>
				<path d="M1356.4,196.9h1.5v2.8h-1.5V196.9z M1356.4,203.8h1.5v14.5h-1.5V203.8z"/>
				<path d="M1362.9,211.2c0,3.7,1.9,6.1,4.7,6.1c2.7,0,3.7-1.5,4.2-2.7h1.5c-0.6,1.9-2.1,4.1-5.7,4.1c-4.4,0-6.1-3.8-6.1-7.5
					c0-4.1,2.1-7.7,6.3-7.7c4.5,0,5.9,3.9,5.9,6.6c0,0.4,0,0.8,0,1.2H1362.9z M1372.1,209.9c0-2.9-1.6-5.1-4.4-5.1
					c-3,0-4.4,2.1-4.7,5.1H1372.1z"/>
				<path d="M1377.2,207.4c0-1.3,0-2.5,0-3.7h1.4c0.1,0.5,0.1,2.3,0.1,2.8c0.6-1.5,1.8-3.1,4.8-3.1c2.6,0,4.9,1.5,4.9,5.5v9.4h-1.5
					v-9.2c0-2.6-1.1-4.3-3.6-4.3c-3.5,0-4.6,2.9-4.6,6v7.4h-1.5V207.4z"/>
				<path d="M1390.9,203.8h2.7v-4.5h1.5v4.5h3.5v1.4h-3.5v9.4c0,1.6,0.3,2.6,1.7,2.6c0.4,0,1,0,1.5-0.2v1.3
					c-0.5,0.2-1.2,0.3-1.8,0.3c-1.9,0-2.9-0.9-2.9-3.2v-10.1h-2.7V203.8z"/>
				<path d="M1401.8,211.2c0,3.7,1.9,6.1,4.7,6.1c2.7,0,3.7-1.5,4.2-2.7h1.5c-0.6,1.9-2.1,4.1-5.7,4.1c-4.4,0-6.1-3.8-6.1-7.5
					c0-4.1,2.1-7.7,6.3-7.7c4.5,0,5.9,3.9,5.9,6.6c0,0.4,0,0.8,0,1.2H1401.8z M1411,209.9c0-2.9-1.6-5.1-4.4-5.1
					c-3,0-4.4,2.1-4.7,5.1H1411z"/>
				<path d="M1416,214.3c0.5,1.9,1.8,3,4.1,3c2.6,0,3.6-1.2,3.6-2.8c0-1.7-0.7-2.5-3.9-3.2c-3.7-0.9-4.7-2-4.7-3.9
					c0-2,1.5-3.9,4.8-3.9c3.3,0,4.8,2,5.1,4.1h-1.5c-0.3-1.2-1.2-2.7-3.7-2.7c-2.5,0-3.2,1.2-3.2,2.4c0,1.3,0.7,2,3.6,2.7
					c4.1,1,5.1,2.3,5.1,4.5c0,2.6-2.1,4.3-5.2,4.3c-3.3,0-5.2-1.7-5.6-4.4H1416z"/>
				<path d="M1256.8,231.7c-2.6,3.4-4.6,7.6-4.6,13c0,4.9,1.6,9.4,4.6,13.3h-1.7c-2.1-2.7-4.4-7.3-4.4-13.3c0-5.9,2.4-10.4,4.4-13
					H1256.8z"/>
				<path d="M1274.6,231.8L1271,249c-0.3,1.4-0.6,2.8-0.8,4.1h-1.8c0-0.4,0.2-1.5,0.4-2.5c-1,1.6-2.4,2.8-5.1,2.8
					c-3.1,0-4.7-2.4-4.7-5.6c0-4.2,2.5-9.5,7.6-9.5c2.6,0,3.9,1.5,4.2,2.5l1.9-9H1274.6z M1261,247.6c0,2.8,1.3,4.1,3.3,4.1
					c3.3,0,5-3,5.7-6.4c0.7-3.3-0.3-5.4-3.4-5.4C1262.9,239.9,1261,244.2,1261,247.6z"/>
				<path d="M1277.8,238.5h1.8l-3.1,14.6h-1.8L1277.8,238.5z M1285.7,231.4l-5.8,4.5h-2.1l5.3-4.5H1285.7z"/>
				<path d="M1292.2,249.5c-0.2,1.1-0.6,3-0.7,3.6h-1.8c0.1-0.6,0.2-1.5,0.4-2.5c-0.7,1.3-2.1,2.8-5.1,2.8c-3,0-4-1.9-4-3.6
					c0-4.2,4-5,6.8-5.3c1.6-0.1,3-0.1,3.6-0.2l0.2-1.1c0.3-1.5,0.2-3.4-2.9-3.4c-2.7,0-3.5,1.4-4,2.7h-1.9c0.5-2.1,2.1-4.2,6-4.2
					c3.3,0,5.3,1.5,4.6,4.9L1292.2,249.5z M1291.2,245.7c-0.7,0-1.8,0-3.2,0.1c-2.4,0.2-5,0.8-5,3.6c0,1.2,0.8,2.2,2.6,2.2
					c3.4,0,4.9-2.6,5.6-5.8L1291.2,245.7z"/>
				<path d="M1317.8,234l-0.3,1.6c-4.1,4.6-8.6,11.5-11.2,17.4h-2c2.7-6.5,7.9-13.6,11.2-17.4h-10.1l0.4-1.7H1317.8z"/>
				<path d="M1315.8,253.1l0.1-0.4c0.7-3.1,3-5.5,7-8.1c3.4-2.3,5.1-3,5.1-6c0-1.8-1-3.3-3.3-3.3c-2.3,0-3.7,1.3-4.5,4h-1.8
					c0.8-3.2,2.7-5.6,6.5-5.6c3.5,0,5.1,2.3,5.1,4.8c0,3.7-2.2,4.8-5.9,7.3c-2.8,1.9-4.8,3.4-5.7,5.6h10.4l-0.6,1.6H1315.8z"/>
				<path d="M1341.5,238.5c1,6.6,1.7,11.8,1.8,13.2h0c0.9-1.6,2.8-5.8,6.8-13.2h2l-8.2,15.5c-2.6,4.8-3.8,5.2-6.4,5.2
					c-0.7,0-1.3-0.1-1.6-0.2l0.4-1.7c0.3,0.1,0.6,0.1,1.3,0.1c2,0,2.7-0.8,4.3-3.6l-2.4-15.4H1341.5z"/>
				<path d="M1373.9,234l-0.3,1.6c-4.1,4.6-8.6,11.5-11.2,17.4h-2c2.7-6.5,7.9-13.6,11.2-17.4h-10.1l0.4-1.7H1373.9z"/>
				<path d="M1375.1,238.4c0.5-2.1,2.1-4.6,5.9-4.6c3.5,0,5,2,5,4.4c0,2.6-1.5,4.1-3.4,4.6v0.1c1.4,0.5,2.8,1.7,2.8,4.3
					c0,3.5-2.4,6.3-6.8,6.3c-4.1,0-5.7-2.5-5.8-5.2h1.9c0.1,1.7,1.1,3.6,4.1,3.6c3.1,0,4.7-2.2,4.7-4.5c0-2.5-1.6-3.6-4.3-3.6h-1.1
					l0.3-1.7h1.1c3,0,4.7-1.1,4.7-3.7c0-1.9-1.2-2.9-3.3-2.9c-2.1,0-3.2,1.3-3.9,3H1375.1z"/>
				<path d="M1385.2,258.1c5.2-4.8,7.7-9.5,7.7-16.3c0-3.1-0.8-7.3-2.1-10h1.8c1.3,2.7,2.2,6.3,2.2,10c0,6.8-2.9,12.3-7.4,16.3
					H1385.2z"/>
			</g>
		</g>
		<rect x="1153.6" y="369" class="st3" width="49.3" height="49.3"/>
		<g>
			<g>
				<path d="M1269.4,342.7c0-4,0-7.8,0.1-9.8h-0.1c-0.8,2.7-4.9,12.7-7.5,19.1h-1.5c-1.9-5-6.2-16.1-7.1-19.2h-0.1
					c0.1,2.3,0.2,7,0.2,10.5v8.6h-1.6v-20.3h2.3c2.8,7,6.3,16.1,7,18.4h0.1c0.5-1.5,4.5-11.6,7.4-18.4h2.3v20.3h-1.6V342.7z"/>
				<path d="M1287,347.8c0,1.4,0,3.7,0,4.2h-1.4c-0.1-0.4-0.1-1.3-0.1-2.5c-0.6,1.7-2.1,2.9-4.7,2.9c-2.1,0-4.8-0.8-4.8-5.2v-9.6
					h1.4v9.3c0,2.1,0.7,4.2,3.5,4.2c3.2,0,4.5-1.8,4.5-6v-7.5h1.5V347.8z"/>
				<path d="M1292.1,345c0,3.7,1.9,6.1,4.7,6.1c2.7,0,3.7-1.5,4.2-2.7h1.5c-0.6,1.9-2.1,4.1-5.7,4.1c-4.4,0-6.1-3.8-6.1-7.5
					c0-4.1,2.1-7.7,6.3-7.7c4.5,0,5.9,3.9,5.9,6.6c0,0.4,0,0.8,0,1.2H1292.1z M1301.3,343.7c0-2.9-1.6-5.1-4.4-5.1
					c-3,0-4.4,2.1-4.7,5.1H1301.3z"/>
				<path d="M1306.3,341.5c0-2.4,0-3.5,0-3.9h1.4c0,0.5,0.1,1.4,0.1,3.2c0.8-2.2,2.7-3.5,5-3.6v1.6c-3,0.2-5,2.3-5,5.7v7.5h-1.5
					V341.5z"/>
				<path d="M1313.5,337.6h2.7v-4.5h1.5v4.5h3.5v1.4h-3.5v9.4c0,1.6,0.3,2.6,1.7,2.6c0.4,0,1,0,1.5-0.2v1.3
					c-0.5,0.2-1.2,0.3-1.8,0.3c-1.9,0-2.9-0.9-2.9-3.2v-10.1h-2.7V337.6z"/>
				<path d="M1324.4,345c0,3.7,1.9,6.1,4.7,6.1c2.7,0,3.7-1.5,4.2-2.7h1.5c-0.6,1.9-2.1,4.1-5.7,4.1c-4.4,0-6.1-3.8-6.1-7.5
					c0-4.1,2.1-7.7,6.3-7.7c4.5,0,5.9,3.9,5.9,6.6c0,0.4,0,0.8,0,1.2H1324.4z M1333.6,343.7c0-2.9-1.6-5.1-4.4-5.1
					c-3,0-4.4,2.1-4.7,5.1H1333.6z"/>
				<path d="M1347.6,349.9v7.9h-1.5v-16.7c0-1.2,0-2.5,0-3.6h1.4c0.1,0.6,0.1,1.4,0.1,2.6c0.9-1.7,2.5-3,5.1-3
					c3.4,0,5.8,2.9,5.8,7.2c0,5.2-2.8,8-6.3,8C1349.7,352.4,1348.4,351.3,1347.6,349.9z M1357,344.5c0-3.4-1.6-5.9-4.5-5.9
					c-3.5,0-5,2.2-5,6.1c0,3.9,1.1,6.3,4.8,6.3C1355.3,351.1,1357,348.5,1357,344.5z"/>
				<path d="M1373.9,344.8c0,4-2.2,7.6-6.6,7.6c-3.9,0-6.4-3.2-6.4-7.6c0-4.1,2.3-7.6,6.5-7.6
					C1371.4,337.2,1373.9,340.2,1373.9,344.8z M1362.5,344.8c0,3.5,1.9,6.2,4.9,6.2c3.1,0,4.9-2.6,4.9-6.2c0-3.4-1.7-6.2-5-6.2
					C1364.1,338.6,1362.5,341.4,1362.5,344.8z"/>
				<path d="M1377.5,341.5c0-2.4,0-3.5,0-3.9h1.4c0,0.5,0.1,1.4,0.1,3.2c0.8-2.2,2.7-3.5,5-3.6v1.6c-3,0.2-5,2.3-5,5.7v7.5h-1.5
					V341.5z"/>
				<path d="M1251.3,376.3c0-2.4,0-3.5,0-3.9h1.4c0,0.5,0.1,1.4,0.1,3.2c0.8-2.2,2.7-3.5,5-3.6v1.6c-3,0.2-5,2.3-5,5.7v7.5h-1.5
					V376.3z"/>
				<path d="M1261,379.8c0,3.7,1.9,6.1,4.7,6.1c2.7,0,3.7-1.5,4.2-2.7h1.5c-0.6,1.9-2.1,4.1-5.7,4.1c-4.4,0-6.1-3.8-6.1-7.5
					c0-4.1,2.1-7.7,6.3-7.7c4.5,0,5.9,3.9,5.9,6.6c0,0.4,0,0.8,0,1.2H1261z M1270.2,378.5c0-2.9-1.6-5.1-4.4-5.1
					c-3,0-4.4,2.1-4.7,5.1H1270.2z"/>
				<path d="M1276.7,365.5v9.3c0.8-1.5,2.2-2.8,4.8-2.8c2.1,0,4.9,1,4.9,5.6v9.2h-1.5V378c0-2.9-1.3-4.5-3.7-4.5
					c-2.9,0-4.5,1.8-4.5,5.3v8.1h-1.5v-21.4H1276.7z"/>
				<path d="M1302,382.6c0,1.4,0,3.7,0,4.2h-1.4c-0.1-0.4-0.1-1.3-0.1-2.5c-0.6,1.7-2.1,2.9-4.7,2.9c-2.1,0-4.8-0.8-4.8-5.2v-9.6
					h1.4v9.3c0,2.1,0.7,4.2,3.5,4.2c3.2,0,4.5-1.8,4.5-6v-7.5h1.5V382.6z"/>
				<path d="M1306.8,382.9c0.5,1.9,1.8,3,4.1,3c2.6,0,3.6-1.2,3.6-2.8c0-1.7-0.7-2.5-3.9-3.2c-3.7-0.9-4.7-2-4.7-3.9
					c0-2,1.5-3.9,4.8-3.9c3.3,0,4.8,2,5.1,4.1h-1.5c-0.3-1.2-1.2-2.7-3.7-2.7c-2.5,0-3.2,1.2-3.2,2.4c0,1.3,0.7,2,3.6,2.7
					c4.1,1,5.1,2.3,5.1,4.5c0,2.6-2.1,4.3-5.2,4.3c-3.3,0-5.2-1.7-5.6-4.4H1306.8z"/>
				<path d="M1329.6,384.1c0,1.3,0.1,2.3,0.2,2.8h-1.4c-0.1-0.3-0.2-1-0.3-2.2c-0.5,1.1-1.8,2.6-4.8,2.6c-3.4,0-4.8-2.2-4.8-4.4
					c0-3.2,2.5-4.6,6.8-4.6c1.2,0,2.2,0,2.8,0v-1.5c0-1.5-0.4-3.4-3.7-3.4c-2.9,0-3.4,1.5-3.7,2.7h-1.5c0.2-1.6,1.2-4.1,5.2-4.1
					c3.3,0,5.2,1.4,5.2,4.6V384.1z M1328.2,379.5c-0.6,0-1.9,0-2.8,0c-3.2,0-5.2,0.8-5.2,3.3c0,1.8,1.3,3.1,3.3,3.1
					c4.1,0,4.7-2.8,4.7-5.9V379.5z"/>
				<path d="M1334.4,376.3c0-2.4,0-3.5,0-3.9h1.4c0,0.5,0.1,1.4,0.1,3.2c0.8-2.2,2.7-3.5,5-3.6v1.6c-3,0.2-5,2.3-5,5.7v7.5h-1.5
					V376.3z"/>
				<path d="M1343.8,382.9c0.5,1.9,1.8,3,4.1,3c2.6,0,3.6-1.2,3.6-2.8c0-1.7-0.7-2.5-3.9-3.2c-3.7-0.9-4.7-2-4.7-3.9
					c0-2,1.5-3.9,4.8-3.9c3.3,0,4.8,2,5.1,4.1h-1.5c-0.3-1.2-1.2-2.7-3.7-2.7c-2.5,0-3.2,1.2-3.2,2.4c0,1.3,0.7,2,3.6,2.7
					c4.1,1,5.1,2.3,5.1,4.5c0,2.6-2.1,4.3-5.2,4.3c-3.3,0-5.2-1.7-5.6-4.4H1343.8z"/>
				<path d="M1357,379.8c0,3.7,1.9,6.1,4.7,6.1c2.7,0,3.7-1.5,4.2-2.7h1.5c-0.6,1.9-2.1,4.1-5.7,4.1c-4.4,0-6.1-3.8-6.1-7.5
					c0-4.1,2.1-7.7,6.3-7.7c4.5,0,5.9,3.9,5.9,6.6c0,0.4,0,0.8,0,1.2H1357z M1366.2,378.5c0-2.9-1.6-5.1-4.4-5.1
					c-3,0-4.4,2.1-4.7,5.1H1366.2z"/>
				<path d="M1388.7,384.1c0,1.3,0.1,2.3,0.2,2.8h-1.4c-0.1-0.3-0.2-1-0.3-2.2c-0.5,1.1-1.8,2.6-4.8,2.6c-3.4,0-4.8-2.2-4.8-4.4
					c0-3.2,2.5-4.6,6.8-4.6c1.2,0,2.2,0,2.8,0v-1.5c0-1.5-0.4-3.4-3.7-3.4c-2.9,0-3.4,1.5-3.7,2.7h-1.5c0.2-1.6,1.2-4.1,5.2-4.1
					c3.3,0,5.2,1.4,5.2,4.6V384.1z M1387.3,379.5c-0.6,0-1.9,0-2.8,0c-3.2,0-5.2,0.8-5.2,3.3c0,1.8,1.3,3.1,3.3,3.1
					c4.1,0,4.7-2.8,4.7-5.9V379.5z"/>
				<path d="M1262,417.4c-0.7,2.6-2.4,4.6-5.6,4.6c-3.6,0-6.2-2.7-6.2-7.5c0-4,2.1-7.7,6.4-7.7c3.7,0,5.2,2.6,5.5,4.6h-1.5
					c-0.4-1.7-1.5-3.3-4-3.3c-3.1,0-4.8,2.6-4.8,6.2c0,3.5,1.6,6.2,4.7,6.2c2.1,0,3.4-1.1,4.1-3.2H1262z"/>
				<path d="M1277.1,414.4c0,4-2.2,7.6-6.6,7.6c-3.9,0-6.4-3.2-6.4-7.6c0-4.1,2.3-7.6,6.5-7.6
					C1274.6,406.8,1277.1,409.8,1277.1,414.4z M1265.7,414.4c0,3.5,1.9,6.2,4.9,6.2c3.1,0,4.9-2.6,4.9-6.2c0-3.4-1.7-6.2-5-6.2
					C1267.3,408.2,1265.7,411,1265.7,414.4z"/>
				<path d="M1280.7,410.9c0-1.2,0-2.6,0-3.7h1.4c0,0.5,0.1,1.7,0.1,2.6c0.6-1.5,1.9-2.9,4.4-2.9c2,0,3.6,1,4.2,2.9
					c0.7-1.5,2.2-2.9,4.7-2.9c2.2,0,4.6,1.3,4.6,5.3v9.5h-1.5v-9.4c0-1.9-0.7-4.1-3.4-4.1c-2.8,0-4.1,2.3-4.1,5.1v8.4h-1.4v-9.3
					c0-2.1-0.6-4.1-3.3-4.1c-2.8,0-4.2,2.5-4.2,5.5v8h-1.5V410.9z"/>
				<path d="M1305.1,414.6c0,3.7,1.9,6.1,4.7,6.1c2.7,0,3.7-1.5,4.2-2.7h1.5c-0.6,1.9-2.1,4.1-5.7,4.1c-4.4,0-6.1-3.8-6.1-7.5
					c0-4.1,2.1-7.7,6.3-7.7c4.5,0,5.9,3.9,5.9,6.6c0,0.4,0,0.8,0,1.2H1305.1z M1314.3,413.3c0-2.9-1.6-5.1-4.4-5.1
					c-3,0-4.4,2.1-4.7,5.1H1314.3z"/>
				<path d="M1319.3,411.1c0-2.4,0-3.5,0-3.9h1.4c0,0.5,0.1,1.4,0.1,3.2c0.8-2.2,2.7-3.5,5-3.6v1.6c-3,0.2-5,2.3-5,5.7v7.5h-1.5
					V411.1z"/>
				<path d="M1346.9,417.4c-0.7,2.6-2.4,4.6-5.6,4.6c-3.6,0-6.2-2.7-6.2-7.5c0-4,2.1-7.7,6.4-7.7c3.7,0,5.2,2.6,5.5,4.6h-1.5
					c-0.4-1.7-1.5-3.3-4-3.3c-3.1,0-4.8,2.6-4.8,6.2c0,3.5,1.6,6.2,4.7,6.2c2.1,0,3.4-1.1,4.1-3.2H1346.9z"/>
				<path d="M1360.2,418.9c0,1.3,0.1,2.3,0.2,2.8h-1.4c-0.1-0.3-0.2-1-0.3-2.2c-0.5,1.1-1.8,2.6-4.8,2.6c-3.4,0-4.8-2.2-4.8-4.4
					c0-3.2,2.5-4.6,6.8-4.6c1.2,0,2.2,0,2.8,0v-1.5c0-1.5-0.4-3.4-3.7-3.4c-2.9,0-3.4,1.5-3.7,2.7h-1.5c0.2-1.6,1.2-4.1,5.2-4.1
					c3.3,0,5.2,1.4,5.2,4.6V418.9z M1358.8,414.3c-0.6,0-1.9,0-2.8,0c-3.2,0-5.2,0.8-5.2,3.3c0,1.8,1.3,3.1,3.3,3.1
					c4.1,0,4.7-2.8,4.7-5.9V414.3z"/>
				<path d="M1365,411.1c0-2.4,0-3.5,0-3.9h1.4c0,0.5,0.1,1.4,0.1,3.2c0.8-2.2,2.7-3.5,5-3.6v1.6c-3,0.2-5,2.3-5,5.7v7.5h-1.5V411.1
					z"/>
				<path d="M1374.4,410.8c0-1.3,0-2.5,0-3.7h1.4c0.1,0.5,0.1,2.3,0.1,2.8c0.6-1.5,1.8-3.1,4.8-3.1c2.6,0,4.9,1.5,4.9,5.5v9.4h-1.5
					v-9.2c0-2.6-1.1-4.3-3.6-4.3c-3.5,0-4.6,2.9-4.6,6v7.4h-1.5V410.8z"/>
				<path d="M1390.6,414.6c0,3.7,1.9,6.1,4.7,6.1c2.7,0,3.7-1.5,4.2-2.7h1.5c-0.6,1.9-2.1,4.1-5.7,4.1c-4.4,0-6.1-3.8-6.1-7.5
					c0-4.1,2.1-7.7,6.3-7.7c4.5,0,5.9,3.9,5.9,6.6c0,0.4,0,0.8,0,1.2H1390.6z M1399.8,413.3c0-2.9-1.6-5.1-4.4-5.1
					c-3,0-4.4,2.1-4.7,5.1H1399.8z"/>
				<path d="M1252.8,435.1v9.3c0.8-1.5,2.2-2.8,4.8-2.8c2.1,0,4.9,1,4.9,5.6v9.2h-1.5v-8.9c0-2.9-1.3-4.5-3.7-4.5
					c-2.9,0-4.5,1.8-4.5,5.3v8.1h-1.5v-21.4H1252.8z"/>
				<path d="M1278.1,452.2c0,1.4,0,3.7,0,4.2h-1.4c-0.1-0.4-0.1-1.3-0.1-2.5c-0.6,1.7-2.1,2.9-4.7,2.9c-2.1,0-4.8-0.8-4.8-5.2V442
					h1.4v9.3c0,2.1,0.7,4.2,3.5,4.2c3.2,0,4.5-1.8,4.5-6V442h1.5V452.2z"/>
				<path d="M1282.8,445.7c0-1.2,0-2.6,0-3.7h1.4c0,0.5,0.1,1.7,0.1,2.6c0.6-1.5,1.9-2.9,4.4-2.9c2,0,3.6,1,4.2,2.9
					c0.7-1.5,2.2-2.9,4.7-2.9c2.2,0,4.6,1.3,4.6,5.3v9.5h-1.5v-9.4c0-1.9-0.7-4.1-3.4-4.1c-2.8,0-4.1,2.3-4.1,5.1v8.4h-1.4v-9.3
					c0-2.1-0.6-4.1-3.3-4.1c-2.8,0-4.2,2.5-4.2,5.5v8h-1.5V445.7z"/>
				<path d="M1316.8,453.7c0,1.3,0.1,2.3,0.2,2.8h-1.4c-0.1-0.3-0.2-1-0.3-2.2c-0.5,1.1-1.8,2.6-4.8,2.6c-3.4,0-4.8-2.2-4.8-4.4
					c0-3.2,2.5-4.6,6.8-4.6c1.2,0,2.2,0,2.8,0v-1.5c0-1.5-0.4-3.4-3.7-3.4c-2.9,0-3.4,1.5-3.7,2.7h-1.5c0.2-1.6,1.2-4.1,5.2-4.1
					c3.3,0,5.2,1.4,5.2,4.6V453.7z M1315.4,449.1c-0.6,0-1.9,0-2.8,0c-3.2,0-5.2,0.8-5.2,3.3c0,1.8,1.3,3.1,3.3,3.1
					c4.1,0,4.7-2.8,4.7-5.9V449.1z"/>
				<path d="M1321.6,445.6c0-1.3,0-2.5,0-3.7h1.4c0.1,0.5,0.1,2.3,0.1,2.8c0.6-1.5,1.8-3.1,4.8-3.1c2.6,0,4.9,1.5,4.9,5.5v9.4h-1.5
					v-9.2c0-2.6-1.1-4.3-3.6-4.3c-3.5,0-4.6,2.9-4.6,6v7.4h-1.5V445.6z"/>
				<path d="M1347.4,453.7c0,1.3,0.1,2.3,0.2,2.8h-1.4c-0.1-0.3-0.2-1-0.3-2.2c-0.5,1.1-1.8,2.6-4.8,2.6c-3.4,0-4.8-2.2-4.8-4.4
					c0-3.2,2.5-4.6,6.8-4.6c1.2,0,2.2,0,2.8,0v-1.5c0-1.5-0.4-3.4-3.7-3.4c-2.9,0-3.4,1.5-3.7,2.7h-1.5c0.2-1.6,1.2-4.1,5.2-4.1
					c3.3,0,5.2,1.4,5.2,4.6V453.7z M1346,449.1c-0.6,0-1.9,0-2.8,0c-3.2,0-5.2,0.8-5.2,3.3c0,1.8,1.3,3.1,3.3,3.1
					c4.1,0,4.7-2.8,4.7-5.9V449.1z"/>
				<path d="M1368.2,435.1c-5.2,4.8-7.7,9.5-7.7,16.3c0,3.1,0.8,7.3,2.1,10h-1.8c-1.3-2.7-2.2-6.3-2.2-10c0-6.8,2.9-12.3,7.4-16.3
					H1368.2z"/>
				<path d="M1383,435.1l-3.6,17.2c-0.3,1.4-0.6,2.8-0.8,4.1h-1.8c0-0.4,0.2-1.5,0.4-2.5c-1,1.6-2.4,2.8-5.1,2.8
					c-3.1,0-4.7-2.4-4.7-5.6c0-4.2,2.5-9.5,7.6-9.5c2.6,0,3.9,1.5,4.2,2.5l1.9-9H1383z M1369.4,451c0,2.8,1.3,4.1,3.3,4.1
					c3.3,0,5-3,5.7-6.4c0.7-3.3-0.3-5.4-3.4-5.4C1371.3,443.3,1369.4,447.6,1369.4,451z"/>
				<path d="M1386.2,441.9h1.8l-3.1,14.6h-1.8L1386.2,441.9z M1394.1,434.8l-5.8,4.5h-2.1l5.3-4.5H1394.1z"/>
				<path d="M1400.6,452.8c-0.2,1.1-0.6,3-0.7,3.6h-1.8c0.1-0.6,0.2-1.5,0.4-2.5c-0.7,1.3-2.1,2.8-5.1,2.8c-3,0-4-1.9-4-3.6
					c0-4.2,4-5,6.8-5.3c1.6-0.1,3-0.1,3.6-0.2l0.2-1.1c0.3-1.5,0.2-3.4-2.9-3.4c-2.7,0-3.5,1.4-4,2.7h-1.9c0.5-2.1,2.1-4.2,6-4.2
					c3.3,0,5.3,1.5,4.6,4.9L1400.6,452.8z M1399.6,449.1c-0.7,0-1.8,0-3.2,0.1c-2.4,0.2-5,0.8-5,3.6c0,1.2,0.8,2.2,2.6,2.2
					c3.4,0,4.9-2.6,5.6-5.8L1399.6,449.1z"/>
				<path d="M1424,441.4c-0.2-1.4-1-2.7-3.3-2.7c-3.5,0-5.2,3.9-6,7.5c0.9-1.1,2.5-2.4,5-2.4c3.3,0,5.1,2.3,5.1,5.5
					c0,3.9-2.5,7.4-6.7,7.4c-3.8,0-5.6-2.7-5.6-6.7c0-4.8,2.1-13.1,8.3-13.1c3.8,0,4.9,2.5,5,4.4H1424z M1422.9,449.5
					c0-1.9-0.7-3.9-3.6-3.9c-2.9,0-4.9,2.1-4.9,5c0,2.2,1,4.6,3.9,4.6C1421.3,455.1,1422.9,452.5,1422.9,449.5z"/>
				<path d="M1441.1,443.1c0,5-2,13.7-8.3,13.7c-3.3,0-4.9-2.4-4.9-6.3c0-4.9,2.2-13.4,8.3-13.4
					C1439.9,437.1,1441.1,439.9,1441.1,443.1z M1429.8,450.4c0,2.9,1,4.7,3.3,4.7c4.4,0,6.1-7.9,6.1-12c0-2.6-0.8-4.4-3.2-4.4
					C1431.6,438.8,1429.8,446.4,1429.8,450.4z"/>
				<path d="M1440.4,461.4c5.2-4.8,7.7-9.5,7.7-16.3c0-3.1-0.8-7.3-2.1-10h1.8c1.3,2.7,2.2,6.3,2.2,10c0,6.8-2.9,12.3-7.4,16.3
					H1440.4z"/>
			</g>
		</g>
		<rect x="1153.6" y="537.6" class="st2" width="49.3" height="49.3"/>
		<g>
			<g>
				<path d="M1269.4,528.7c0-4,0-7.8,0.1-9.8h-0.1c-0.8,2.7-4.9,12.7-7.5,19.1h-1.5c-1.9-5-6.2-16.1-7.1-19.2h-0.1
					c0.1,2.3,0.2,7,0.2,10.5v8.6h-1.6v-20.3h2.3c2.8,7,6.3,16.1,7,18.4h0.1c0.5-1.5,4.5-11.6,7.4-18.4h2.3v20.3h-1.6V528.7z"/>
				<path d="M1287,533.8c0,1.4,0,3.7,0,4.2h-1.4c-0.1-0.4-0.1-1.3-0.1-2.5c-0.6,1.7-2.1,2.9-4.7,2.9c-2.1,0-4.8-0.8-4.8-5.2v-9.6
					h1.4v9.3c0,2.1,0.7,4.2,3.5,4.2c3.2,0,4.5-1.8,4.5-6v-7.5h1.5V533.8z"/>
				<path d="M1292.1,531c0,3.7,1.9,6.1,4.7,6.1c2.7,0,3.7-1.5,4.2-2.7h1.5c-0.6,1.9-2.1,4.1-5.7,4.1c-4.4,0-6.1-3.8-6.1-7.5
					c0-4.1,2.1-7.7,6.3-7.7c4.5,0,5.9,3.9,5.9,6.6c0,0.4,0,0.8,0,1.2H1292.1z M1301.3,529.7c0-2.9-1.6-5.1-4.4-5.1
					c-3,0-4.4,2.1-4.7,5.1H1301.3z"/>
				<path d="M1306.3,527.5c0-2.4,0-3.5,0-3.9h1.4c0,0.5,0.1,1.4,0.1,3.2c0.8-2.2,2.7-3.5,5-3.6v1.6c-3,0.2-5,2.3-5,5.7v7.5h-1.5
					V527.5z"/>
				<path d="M1313.5,523.6h2.7V519h1.5v4.5h3.5v1.4h-3.5v9.4c0,1.6,0.3,2.6,1.7,2.6c0.4,0,1,0,1.5-0.2v1.3c-0.5,0.2-1.2,0.3-1.8,0.3
					c-1.9,0-2.9-0.9-2.9-3.2v-10.1h-2.7V523.6z"/>
				<path d="M1324.4,531c0,3.7,1.9,6.1,4.7,6.1c2.7,0,3.7-1.5,4.2-2.7h1.5c-0.6,1.9-2.1,4.1-5.7,4.1c-4.4,0-6.1-3.8-6.1-7.5
					c0-4.1,2.1-7.7,6.3-7.7c4.5,0,5.9,3.9,5.9,6.6c0,0.4,0,0.8,0,1.2H1324.4z M1333.6,529.7c0-2.9-1.6-5.1-4.4-5.1
					c-3,0-4.4,2.1-4.7,5.1H1333.6z"/>
				<path d="M1357.4,516.7v17.2c0,1.4,0,2.7,0,4.2h-1.4c-0.1-0.3-0.1-1.7-0.1-2.4c-0.7,1.8-2.3,2.8-4.9,2.8c-3.8,0-6-3.1-6-7.4
					c0-4.5,2.5-7.8,6.4-7.8c2.9,0,4.1,1.2,4.5,2.2v-8.7H1357.4z M1346.6,530.9c0,4,2.1,6.1,4.6,6.1c3.8,0,4.9-2.6,4.9-6.6
					c0-3.7-0.9-5.9-4.6-5.9C1348.5,524.6,1346.6,526.9,1346.6,530.9z"/>
				<path d="M1362.5,531c0,3.7,1.9,6.1,4.7,6.1c2.7,0,3.7-1.5,4.2-2.7h1.5c-0.6,1.9-2.1,4.1-5.7,4.1c-4.4,0-6.1-3.8-6.1-7.5
					c0-4.1,2.1-7.7,6.3-7.7c4.5,0,5.9,3.9,5.9,6.6c0,0.4,0,0.8,0,1.2H1362.5z M1371.6,529.7c0-2.9-1.6-5.1-4.4-5.1
					c-3,0-4.4,2.1-4.7,5.1H1371.6z"/>
				<path d="M1262.4,571.9c0,4.6-2.1,7.1-6.3,7.1c-3.8,0-5.3-2.1-5.7-4.3h1.5c0.5,2,2.2,3,4.3,3c3.8,0,4.8-2.4,4.8-6.1V570
					c-0.8,1.9-2.2,2.9-4.8,2.9c-3.4,0-6-2.8-6-7.3c0-4.9,2.8-7.6,6.2-7.6c3,0,4.2,1.4,4.6,2.6c0-0.8,0.1-1.9,0.1-2.2h1.4
					c0,0.5-0.1,2.8-0.1,4.2V571.9z M1251.7,565.6c0,3.5,1.8,5.9,4.6,5.9c3.6,0,4.7-2.4,4.7-6.2c0-3.8-1.2-5.9-4.6-5.9
					C1253.1,559.4,1251.7,562.3,1251.7,565.6z"/>
				<path d="M1277.1,570.1c0,1.3,0.1,2.3,0.2,2.8h-1.4c-0.1-0.3-0.2-1-0.3-2.2c-0.5,1.1-1.8,2.6-4.8,2.6c-3.4,0-4.8-2.2-4.8-4.4
					c0-3.2,2.5-4.6,6.8-4.6c1.2,0,2.2,0,2.8,0v-1.5c0-1.5-0.4-3.4-3.7-3.4c-2.9,0-3.4,1.5-3.7,2.7h-1.5c0.2-1.6,1.2-4.1,5.2-4.1
					c3.3,0,5.2,1.4,5.2,4.6V570.1z M1275.7,565.5c-0.6,0-1.9,0-2.8,0c-3.2,0-5.2,0.8-5.2,3.3c0,1.8,1.3,3.1,3.3,3.1
					c4.1,0,4.7-2.8,4.7-5.9V565.5z"/>
				<path d="M1281.9,562c0-1.3,0-2.5,0-3.7h1.4c0.1,0.5,0.1,2.3,0.1,2.8c0.6-1.5,1.8-3.1,4.8-3.1c2.6,0,4.9,1.5,4.9,5.5v9.4h-1.5
					v-9.2c0-2.6-1.1-4.3-3.6-4.3c-3.5,0-4.6,2.9-4.6,6v7.4h-1.5V562z"/>
				<path d="M1308.9,571.9c0,4.6-2.1,7.1-6.3,7.1c-3.8,0-5.3-2.1-5.7-4.3h1.5c0.5,2,2.2,3,4.3,3c3.8,0,4.8-2.4,4.8-6.1V570
					c-0.8,1.9-2.2,2.9-4.8,2.9c-3.4,0-6-2.8-6-7.3c0-4.9,2.8-7.6,6.2-7.6c3,0,4.2,1.4,4.6,2.6c0-0.8,0.1-1.9,0.1-2.2h1.4
					c0,0.5-0.1,2.8-0.1,4.2V571.9z M1298.2,565.6c0,3.5,1.8,5.9,4.6,5.9c3.6,0,4.7-2.4,4.7-6.2c0-3.8-1.2-5.9-4.6-5.9
					C1299.5,559.4,1298.2,562.3,1298.2,565.6z"/>
				<path d="M1313.6,562.3c0-2.4,0-3.5,0-3.9h1.4c0,0.5,0.1,1.4,0.1,3.2c0.8-2.2,2.7-3.5,5-3.6v1.6c-3,0.2-5,2.3-5,5.7v7.5h-1.5
					V562.3z"/>
				<path d="M1323.3,565.8c0,3.7,1.9,6.1,4.7,6.1c2.7,0,3.7-1.5,4.2-2.7h1.5c-0.6,1.9-2.1,4.1-5.7,4.1c-4.4,0-6.1-3.8-6.1-7.5
					c0-4.1,2.1-7.7,6.3-7.7c4.5,0,5.9,3.9,5.9,6.6c0,0.4,0,0.8,0,1.2H1323.3z M1332.5,564.5c0-2.9-1.6-5.1-4.4-5.1
					c-3,0-4.4,2.1-4.7,5.1H1332.5z"/>
				<path d="M1337.6,562c0-1.3,0-2.5,0-3.7h1.4c0.1,0.5,0.1,2.3,0.1,2.8c0.6-1.5,1.8-3.1,4.8-3.1c2.6,0,4.9,1.5,4.9,5.5v9.4h-1.5
					v-9.2c0-2.6-1.1-4.3-3.6-4.3c-3.5,0-4.6,2.9-4.6,6v7.4h-1.5V562z"/>
				<path d="M1363.4,570.1c0,1.3,0.1,2.3,0.2,2.8h-1.4c-0.1-0.3-0.2-1-0.3-2.2c-0.5,1.1-1.8,2.6-4.8,2.6c-3.4,0-4.8-2.2-4.8-4.4
					c0-3.2,2.5-4.6,6.8-4.6c1.2,0,2.2,0,2.8,0v-1.5c0-1.5-0.4-3.4-3.7-3.4c-2.9,0-3.4,1.5-3.7,2.7h-1.5c0.2-1.6,1.2-4.1,5.2-4.1
					c3.3,0,5.2,1.4,5.2,4.6V570.1z M1362,565.5c-0.6,0-1.9,0-2.8,0c-3.2,0-5.2,0.8-5.2,3.3c0,1.8,1.3,3.1,3.3,3.1
					c4.1,0,4.7-2.8,4.7-5.9V565.5z"/>
				<path d="M1259.8,586.3c-5.2,4.8-7.7,9.5-7.7,16.3c0,3.1,0.8,7.3,2.1,10h-1.8c-1.3-2.7-2.2-6.3-2.2-10c0-6.8,2.9-12.3,7.4-16.3
					H1259.8z"/>
				<path d="M1274.6,586.3l-3.6,17.2c-0.3,1.4-0.6,2.8-0.8,4.1h-1.8c0-0.4,0.2-1.5,0.4-2.5c-1,1.6-2.4,2.8-5.1,2.8
					c-3.1,0-4.7-2.4-4.7-5.6c0-4.2,2.5-9.5,7.6-9.5c2.6,0,3.9,1.5,4.2,2.5l1.9-9H1274.6z M1261,602.2c0,2.8,1.3,4.1,3.3,4.1
					c3.3,0,5-3,5.7-6.4c0.7-3.3-0.3-5.4-3.4-5.4C1262.9,594.5,1261,598.7,1261,602.2z"/>
				<path d="M1277.7,593.1h1.8l-3.1,14.6h-1.8L1277.7,593.1z M1285.6,585.9l-5.8,4.5h-2.1l5.3-4.5H1285.6z"/>
				<path d="M1292.1,604c-0.2,1.1-0.6,3-0.7,3.6h-1.8c0.1-0.6,0.2-1.5,0.4-2.5c-0.7,1.3-2.1,2.8-5.1,2.8c-3,0-4-1.9-4-3.6
					c0-4.2,4-5,6.8-5.3c1.6-0.1,3-0.1,3.6-0.2l0.2-1.1c0.3-1.5,0.2-3.4-2.9-3.4c-2.7,0-3.5,1.4-4,2.7h-1.9c0.5-2.1,2.1-4.2,6-4.2
					c3.3,0,5.3,1.5,4.6,4.9L1292.1,604z M1291.1,600.3c-0.7,0-1.8,0-3.2,0.1c-2.4,0.2-5,0.8-5,3.6c0,1.2,0.8,2.2,2.6,2.2
					c3.4,0,4.9-2.6,5.6-5.8L1291.1,600.3z"/>
				<path d="M1305.6,592.9c0.5-2.1,2.1-4.6,5.9-4.6c3.5,0,5,2,5,4.4c0,2.6-1.5,4.1-3.4,4.6v0.1c1.4,0.5,2.8,1.7,2.8,4.3
					c0,3.5-2.4,6.3-6.8,6.3c-4.1,0-5.7-2.5-5.8-5.2h1.9c0.1,1.7,1.1,3.6,4.1,3.6c3.1,0,4.7-2.2,4.7-4.5c0-2.5-1.6-3.6-4.3-3.6h-1.1
					l0.3-1.7h1.1c3,0,4.7-1.1,4.7-3.7c0-1.9-1.2-2.9-3.3-2.9c-2.1,0-3.2,1.3-3.9,3H1305.6z"/>
				<path d="M1330.2,592.6c-0.2-1.4-1-2.7-3.3-2.7c-3.5,0-5.2,3.9-6,7.5c0.9-1.1,2.5-2.4,5-2.4c3.3,0,5.1,2.3,5.1,5.5
					c0,3.9-2.5,7.4-6.7,7.4c-3.8,0-5.6-2.7-5.6-6.7c0-4.8,2.1-13.1,8.3-13.1c3.8,0,4.9,2.5,5,4.4H1330.2z M1329.1,600.7
					c0-1.9-0.7-3.9-3.6-3.9c-2.9,0-4.9,2.1-4.9,5c0,2.2,1,4.6,3.9,4.6C1327.4,606.3,1329.1,603.7,1329.1,600.7z"/>
				<path d="M1330.8,612.6c5.2-4.8,7.7-9.5,7.7-16.3c0-3.1-0.8-7.3-2.1-10h1.8c1.3,2.7,2.2,6.3,2.2,10c0,6.8-2.9,12.3-7.4,16.3
					H1330.8z"/>
			</g>
		</g>
		<rect x="1153.6" y="706.2" class="st1" width="49.3" height="49.3"/>
		<g>
			<g>
				<path d="M1269.4,697.3c0-4,0-7.8,0.1-9.8h-0.1c-0.8,2.7-4.9,12.7-7.5,19.1h-1.5c-1.9-5-6.2-16.1-7.1-19.2h-0.1
					c0.1,2.3,0.2,7,0.2,10.5v8.6h-1.6v-20.3h2.3c2.8,7,6.3,16.1,7,18.4h0.1c0.5-1.5,4.5-11.6,7.4-18.4h2.3v20.3h-1.6V697.3z"/>
				<path d="M1287,702.4c0,1.4,0,3.7,0,4.2h-1.4c-0.1-0.4-0.1-1.3-0.1-2.5c-0.6,1.7-2.1,2.9-4.7,2.9c-2.1,0-4.8-0.8-4.8-5.2v-9.6
					h1.4v9.3c0,2.1,0.7,4.2,3.5,4.2c3.2,0,4.5-1.8,4.5-6v-7.5h1.5V702.4z"/>
				<path d="M1292.1,699.6c0,3.7,1.9,6.1,4.7,6.1c2.7,0,3.7-1.5,4.2-2.7h1.5c-0.6,1.9-2.1,4.1-5.7,4.1c-4.4,0-6.1-3.8-6.1-7.5
					c0-4.1,2.1-7.7,6.3-7.7c4.5,0,5.9,3.9,5.9,6.6c0,0.4,0,0.8,0,1.2H1292.1z M1301.3,698.3c0-2.9-1.6-5.1-4.4-5.1
					c-3,0-4.4,2.1-4.7,5.1H1301.3z"/>
				<path d="M1306.3,696.1c0-2.4,0-3.5,0-3.9h1.4c0,0.5,0.1,1.4,0.1,3.2c0.8-2.2,2.7-3.5,5-3.6v1.6c-3,0.2-5,2.3-5,5.7v7.5h-1.5
					V696.1z"/>
				<path d="M1313.5,692.2h2.7v-4.5h1.5v4.5h3.5v1.4h-3.5v9.4c0,1.6,0.3,2.6,1.7,2.6c0.4,0,1,0,1.5-0.2v1.3
					c-0.5,0.2-1.2,0.3-1.8,0.3c-1.9,0-2.9-0.9-2.9-3.2v-10.1h-2.7V692.2z"/>
				<path d="M1324.4,699.6c0,3.7,1.9,6.1,4.7,6.1c2.7,0,3.7-1.5,4.2-2.7h1.5c-0.6,1.9-2.1,4.1-5.7,4.1c-4.4,0-6.1-3.8-6.1-7.5
					c0-4.1,2.1-7.7,6.3-7.7c4.5,0,5.9,3.9,5.9,6.6c0,0.4,0,0.8,0,1.2H1324.4z M1333.6,698.3c0-2.9-1.6-5.1-4.4-5.1
					c-3,0-4.4,2.1-4.7,5.1H1333.6z"/>
				<path d="M1346.5,699.6c0,3.7,1.9,6.1,4.7,6.1c2.7,0,3.7-1.5,4.2-2.7h1.5c-0.6,1.9-2.1,4.1-5.7,4.1c-4.4,0-6.1-3.8-6.1-7.5
					c0-4.1,2.1-7.7,6.3-7.7c4.5,0,5.9,3.9,5.9,6.6c0,0.4,0,0.8,0,1.2H1346.5z M1355.7,698.3c0-2.9-1.6-5.1-4.4-5.1
					c-3,0-4.4,2.1-4.7,5.1H1355.7z"/>
				<path d="M1360.7,695.8c0-1.3,0-2.5,0-3.7h1.4c0.1,0.5,0.1,2.3,0.1,2.8c0.6-1.5,1.8-3.1,4.8-3.1c2.6,0,4.9,1.5,4.9,5.5v9.4h-1.5
					v-9.2c0-2.6-1.1-4.3-3.6-4.3c-3.5,0-4.6,2.9-4.6,6v7.4h-1.5V695.8z"/>
				<path d="M1261.3,738.7c0,1.3,0.1,2.3,0.2,2.8h-1.4c-0.1-0.3-0.2-1-0.3-2.2c-0.5,1.1-1.8,2.6-4.8,2.6c-3.4,0-4.8-2.2-4.8-4.4
					c0-3.2,2.5-4.6,6.8-4.6c1.2,0,2.2,0,2.8,0v-1.5c0-1.5-0.4-3.4-3.7-3.4c-2.9,0-3.4,1.5-3.7,2.7h-1.5c0.2-1.6,1.2-4.1,5.2-4.1
					c3.3,0,5.2,1.4,5.2,4.6V738.7z M1259.9,734.1c-0.6,0-1.9,0-2.8,0c-3.2,0-5.2,0.8-5.2,3.3c0,1.8,1.3,3.1,3.3,3.1
					c4.1,0,4.7-2.8,4.7-5.9V734.1z"/>
				<path d="M1265.7,727c2.3,6.6,4,11.2,4.5,13h0c0.3-1.1,1.9-5.4,4.8-13h1.5l-5.5,14.5h-1.7l-5.2-14.5H1265.7z"/>
				<path d="M1289.3,738.7c0,1.3,0.1,2.3,0.2,2.8h-1.4c-0.1-0.3-0.2-1-0.3-2.2c-0.5,1.1-1.8,2.6-4.8,2.6c-3.4,0-4.8-2.2-4.8-4.4
					c0-3.2,2.5-4.6,6.8-4.6c1.2,0,2.2,0,2.8,0v-1.5c0-1.5-0.4-3.4-3.7-3.4c-2.9,0-3.4,1.5-3.7,2.7h-1.5c0.2-1.6,1.2-4.1,5.2-4.1
					c3.3,0,5.2,1.4,5.2,4.6V738.7z M1287.9,734.1c-0.6,0-1.9,0-2.8,0c-3.2,0-5.2,0.8-5.2,3.3c0,1.8,1.3,3.1,3.3,3.1
					c4.1,0,4.7-2.8,4.7-5.9V734.1z"/>
				<path d="M1294.1,741.5v-21.4h1.5v21.4H1294.1z"/>
				<path d="M1310.3,738.7c0,1.3,0.1,2.3,0.2,2.8h-1.4c-0.1-0.3-0.2-1-0.3-2.2c-0.5,1.1-1.8,2.6-4.8,2.6c-3.4,0-4.8-2.2-4.8-4.4
					c0-3.2,2.5-4.6,6.8-4.6c1.2,0,2.2,0,2.8,0v-1.5c0-1.5-0.4-3.4-3.7-3.4c-2.9,0-3.4,1.5-3.7,2.7h-1.5c0.2-1.6,1.2-4.1,5.2-4.1
					c3.3,0,5.2,1.4,5.2,4.6V738.7z M1308.8,734.1c-0.6,0-1.9,0-2.8,0c-3.2,0-5.2,0.8-5.2,3.3c0,1.8,1.3,3.1,3.3,3.1
					c4.1,0,4.7-2.8,4.7-5.9V734.1z"/>
				<path d="M1315,730.6c0-1.3,0-2.5,0-3.7h1.4c0.1,0.5,0.1,2.3,0.1,2.8c0.6-1.5,1.8-3.1,4.8-3.1c2.6,0,4.9,1.5,4.9,5.5v9.4h-1.5
					v-9.2c0-2.6-1.1-4.3-3.6-4.3c-3.5,0-4.6,2.9-4.6,6v7.4h-1.5V730.6z"/>
				<path d="M1341.6,737.2c-0.7,2.6-2.4,4.6-5.6,4.6c-3.6,0-6.2-2.7-6.2-7.5c0-4,2.1-7.7,6.4-7.7c3.7,0,5.2,2.6,5.5,4.6h-1.5
					c-0.4-1.7-1.5-3.3-4-3.3c-3.1,0-4.8,2.6-4.8,6.2c0,3.5,1.6,6.2,4.7,6.2c2.1,0,3.4-1.1,4.1-3.2H1341.6z"/>
				<path d="M1346.4,720.1v9.3c0.8-1.5,2.2-2.8,4.8-2.8c2.1,0,4.9,1,4.9,5.6v9.2h-1.5v-8.9c0-2.9-1.3-4.5-3.7-4.5
					c-2.9,0-4.5,1.8-4.5,5.3v8.1h-1.5v-21.4H1346.4z"/>
				<path d="M1370.8,738.7c0,1.3,0.1,2.3,0.2,2.8h-1.4c-0.1-0.3-0.2-1-0.3-2.2c-0.5,1.1-1.8,2.6-4.8,2.6c-3.4,0-4.8-2.2-4.8-4.4
					c0-3.2,2.5-4.6,6.8-4.6c1.2,0,2.2,0,2.8,0v-1.5c0-1.5-0.4-3.4-3.7-3.4c-2.9,0-3.4,1.5-3.7,2.7h-1.5c0.2-1.6,1.2-4.1,5.2-4.1
					c3.3,0,5.2,1.4,5.2,4.6V738.7z M1369.4,734.1c-0.6,0-1.9,0-2.8,0c-3.2,0-5.2,0.8-5.2,3.3c0,1.8,1.3,3.1,3.3,3.1
					c4.1,0,4.7-2.8,4.7-5.9V734.1z"/>
				<path d="M1259.8,754.9c-5.2,4.8-7.7,9.5-7.7,16.3c0,3.1,0.8,7.3,2.1,10h-1.8c-1.3-2.7-2.2-6.3-2.2-10c0-6.8,2.9-12.3,7.4-16.3
					H1259.8z"/>
				<path d="M1274.6,754.9l-3.6,17.2c-0.3,1.4-0.6,2.8-0.8,4.1h-1.8c0-0.4,0.2-1.5,0.4-2.5c-1,1.6-2.4,2.8-5.1,2.8
					c-3.1,0-4.7-2.4-4.7-5.6c0-4.2,2.5-9.5,7.6-9.5c2.6,0,3.9,1.5,4.2,2.5l1.9-9H1274.6z M1261,770.8c0,2.8,1.3,4.1,3.3,4.1
					c3.3,0,5-3,5.7-6.4c0.7-3.3-0.3-5.4-3.4-5.4C1262.9,763.1,1261,767.3,1261,770.8z"/>
				<path d="M1277.7,761.7h1.8l-3.1,14.6h-1.8L1277.7,761.7z M1285.6,754.5l-5.8,4.5h-2.1l5.3-4.5H1285.6z"/>
				<path d="M1292.1,772.6c-0.2,1.1-0.6,3-0.7,3.6h-1.8c0.1-0.6,0.2-1.5,0.4-2.5c-0.7,1.3-2.1,2.8-5.1,2.8c-3,0-4-1.9-4-3.6
					c0-4.2,4-5,6.8-5.3c1.6-0.1,3-0.1,3.6-0.2l0.2-1.1c0.3-1.5,0.2-3.4-2.9-3.4c-2.7,0-3.5,1.4-4,2.7h-1.9c0.5-2.1,2.1-4.2,6-4.2
					c3.3,0,5.3,1.5,4.6,4.9L1292.1,772.6z M1291.1,768.9c-0.7,0-1.8,0-3.2,0.1c-2.4,0.2-5,0.8-5,3.6c0,1.2,0.8,2.2,2.6,2.2
					c3.4,0,4.9-2.6,5.6-5.8L1291.1,768.9z"/>
				<path d="M1305.5,776.3l3.5-16.5c-1,0.6-3.3,1.2-4.3,1.3l0.4-1.6c1.9-0.3,3.9-1.3,4.9-2.3h1.4l-4.1,19.1H1305.5z"/>
				<path d="M1327.1,757.2l-0.3,1.6c-4.1,4.6-8.6,11.5-11.2,17.4h-2c2.7-6.5,7.9-13.6,11.2-17.4h-10.1l0.4-1.7H1327.1z"/>
				<path d="M1323.9,781.2c5.2-4.8,7.7-9.5,7.7-16.3c0-3.1-0.8-7.3-2.1-10h1.8c1.3,2.7,2.2,6.3,2.2,10c0,6.8-2.9,12.3-7.4,16.3
					H1323.9z"/>
			</g>
		</g>
		<rect x="1153.6" y="874.7" class="st0" width="49.3" height="49.3"/>
		<g>
			<g>
				<path d="M1269.4,883.3c0-4,0-7.8,0.1-9.8h-0.1c-0.8,2.7-4.9,12.7-7.5,19.1h-1.5c-1.9-5-6.2-16.1-7.1-19.2h-0.1
					c0.1,2.3,0.2,7,0.2,10.5v8.6h-1.6v-20.3h2.3c2.8,7,6.3,16.1,7,18.4h0.1c0.5-1.5,4.5-11.6,7.4-18.4h2.3v20.3h-1.6V883.3z"/>
				<path d="M1287,888.4c0,1.4,0,3.7,0,4.2h-1.4c-0.1-0.4-0.1-1.3-0.1-2.5c-0.6,1.7-2.1,2.9-4.7,2.9c-2.1,0-4.8-0.8-4.8-5.2v-9.6
					h1.4v9.3c0,2.1,0.7,4.2,3.5,4.2c3.2,0,4.5-1.8,4.5-6v-7.5h1.5V888.4z"/>
				<path d="M1292.1,885.6c0,3.7,1.9,6.1,4.7,6.1c2.7,0,3.7-1.5,4.2-2.7h1.5c-0.6,1.9-2.1,4.1-5.7,4.1c-4.4,0-6.1-3.8-6.1-7.5
					c0-4.1,2.1-7.7,6.3-7.7c4.5,0,5.9,3.9,5.9,6.6c0,0.4,0,0.8,0,1.2H1292.1z M1301.3,884.3c0-2.9-1.6-5.1-4.4-5.1
					c-3,0-4.4,2.1-4.7,5.1H1301.3z"/>
				<path d="M1306.3,882.1c0-2.4,0-3.5,0-3.9h1.4c0,0.5,0.1,1.4,0.1,3.2c0.8-2.2,2.7-3.5,5-3.6v1.6c-3,0.2-5,2.3-5,5.7v7.5h-1.5
					V882.1z"/>
				<path d="M1313.5,878.2h2.7v-4.5h1.5v4.5h3.5v1.4h-3.5v9.4c0,1.6,0.3,2.6,1.7,2.6c0.4,0,1,0,1.5-0.2v1.3
					c-0.5,0.2-1.2,0.3-1.8,0.3c-1.9,0-2.9-0.9-2.9-3.2v-10.1h-2.7V878.2z"/>
				<path d="M1324.4,885.6c0,3.7,1.9,6.1,4.7,6.1c2.7,0,3.7-1.5,4.2-2.7h1.5c-0.6,1.9-2.1,4.1-5.7,4.1c-4.4,0-6.1-3.8-6.1-7.5
					c0-4.1,2.1-7.7,6.3-7.7c4.5,0,5.9,3.9,5.9,6.6c0,0.4,0,0.8,0,1.2H1324.4z M1333.6,884.3c0-2.9-1.6-5.1-4.4-5.1
					c-3,0-4.4,2.1-4.7,5.1H1333.6z"/>
				<path d="M1346.5,885.6c0,3.7,1.9,6.1,4.7,6.1c2.7,0,3.7-1.5,4.2-2.7h1.5c-0.6,1.9-2.1,4.1-5.7,4.1c-4.4,0-6.1-3.8-6.1-7.5
					c0-4.1,2.1-7.7,6.3-7.7c4.5,0,5.9,3.9,5.9,6.6c0,0.4,0,0.8,0,1.2H1346.5z M1355.7,884.3c0-2.9-1.6-5.1-4.4-5.1
					c-3,0-4.4,2.1-4.7,5.1H1355.7z"/>
				<path d="M1360.7,881.8c0-1.3,0-2.5,0-3.7h1.4c0.1,0.5,0.1,2.3,0.1,2.8c0.6-1.5,1.8-3.1,4.8-3.1c2.6,0,4.9,1.5,4.9,5.5v9.4h-1.5
					v-9.2c0-2.6-1.1-4.3-3.6-4.3c-3.5,0-4.6,2.9-4.6,6v7.4h-1.5V881.8z"/>
				<path d="M1384.2,892.7v-21.4h1.5v21.4H1384.2z"/>
				<path d="M1400.3,889.9c0,1.3,0.1,2.3,0.2,2.8h-1.4c-0.1-0.3-0.2-1-0.3-2.2c-0.5,1.1-1.8,2.6-4.8,2.6c-3.4,0-4.8-2.2-4.8-4.4
					c0-3.2,2.5-4.6,6.8-4.6c1.2,0,2.2,0,2.8,0v-1.5c0-1.5-0.4-3.4-3.7-3.4c-2.9,0-3.4,1.5-3.7,2.7h-1.5c0.2-1.6,1.2-4.1,5.2-4.1
					c3.3,0,5.2,1.4,5.2,4.6V889.9z M1398.9,885.3c-0.6,0-1.9,0-2.8,0c-3.2,0-5.2,0.8-5.2,3.3c0,1.8,1.3,3.1,3.3,3.1
					c4.1,0,4.7-2.8,4.7-5.9V885.3z"/>
				<path d="M1252.8,925.3v7.9h-1.5v-16.7c0-1.2,0-2.5,0-3.6h1.4c0.1,0.6,0.1,1.4,0.1,2.6c0.9-1.7,2.5-3,5.1-3
					c3.4,0,5.8,2.9,5.8,7.2c0,5.2-2.8,8-6.3,8C1254.8,927.8,1253.5,926.7,1252.8,925.3z M1262.1,919.9c0-3.4-1.6-5.9-4.5-5.9
					c-3.5,0-5,2.2-5,6.1c0,3.9,1.1,6.3,4.8,6.3C1260.5,926.4,1262.1,923.9,1262.1,919.9z"/>
				<path d="M1267.3,916.9c0-2.4,0-3.5,0-3.9h1.4c0,0.5,0.1,1.4,0.1,3.2c0.8-2.2,2.7-3.5,5-3.6v1.6c-3,0.2-5,2.3-5,5.7v7.5h-1.5
					V916.9z"/>
				<path d="M1276.7,906.1h1.5v2.8h-1.5V906.1z M1276.7,913h1.5v14.5h-1.5V913z"/>
				<path d="M1282.9,916.7c0-1.2,0-2.6,0-3.7h1.4c0,0.5,0.1,1.7,0.1,2.6c0.6-1.5,1.9-2.9,4.4-2.9c2,0,3.6,1,4.2,2.9
					c0.7-1.5,2.2-2.9,4.7-2.9c2.2,0,4.6,1.3,4.6,5.3v9.5h-1.5v-9.4c0-1.9-0.7-4.1-3.4-4.1c-2.8,0-4.1,2.3-4.1,5.1v8.4h-1.4v-9.3
					c0-2.1-0.6-4.1-3.3-4.1c-2.8,0-4.2,2.5-4.2,5.5v8h-1.5V916.7z"/>
				<path d="M1307.3,920.4c0,3.7,1.9,6.1,4.7,6.1c2.7,0,3.7-1.5,4.2-2.7h1.5c-0.6,1.9-2.1,4.1-5.7,4.1c-4.4,0-6.1-3.8-6.1-7.5
					c0-4.1,2.1-7.7,6.3-7.7c4.5,0,5.9,3.9,5.9,6.6c0,0.4,0,0.8,0,1.2H1307.3z M1316.5,919.1c0-2.9-1.6-5.1-4.4-5.1
					c-3,0-4.4,2.1-4.7,5.1H1316.5z"/>
				<path d="M1321.5,916.9c0-2.4,0-3.5,0-3.9h1.4c0,0.5,0.1,1.4,0.1,3.2c0.8-2.2,2.7-3.5,5-3.6v1.6c-3,0.2-5,2.3-5,5.7v7.5h-1.5
					V916.9z"/>
				<path d="M1340.8,924.7c0,1.3,0.1,2.3,0.2,2.8h-1.4c-0.1-0.3-0.2-1-0.3-2.2c-0.5,1.1-1.8,2.6-4.8,2.6c-3.4,0-4.8-2.2-4.8-4.4
					c0-3.2,2.5-4.6,6.8-4.6c1.2,0,2.2,0,2.8,0v-1.5c0-1.5-0.4-3.4-3.7-3.4c-2.9,0-3.4,1.5-3.7,2.7h-1.5c0.2-1.6,1.2-4.1,5.2-4.1
					c3.3,0,5.2,1.4,5.2,4.6V924.7z M1339.4,920.1c-0.6,0-1.9,0-2.8,0c-3.2,0-5.2,0.8-5.2,3.3c0,1.8,1.3,3.1,3.3,3.1
					c4.1,0,4.7-2.8,4.7-5.9V920.1z"/>
				<path d="M1353.2,916.6c0-1.3,0-2.5,0-3.7h1.4c0.1,0.5,0.1,2.3,0.1,2.8c0.6-1.5,1.8-3.1,4.8-3.1c2.6,0,4.9,1.5,4.9,5.5v9.4h-1.5
					v-9.2c0-2.6-1.1-4.3-3.6-4.3c-3.5,0-4.6,2.9-4.6,6v7.4h-1.5V916.6z"/>
				<path d="M1380.8,920.2c0,4-2.2,7.6-6.6,7.6c-3.9,0-6.4-3.2-6.4-7.6c0-4.1,2.3-7.6,6.5-7.6
					C1378.3,912.6,1380.8,915.6,1380.8,920.2z M1369.4,920.2c0,3.5,1.9,6.2,4.9,6.2c3.1,0,4.9-2.6,4.9-6.2c0-3.4-1.7-6.2-5-6.2
					C1371,914,1369.4,916.7,1369.4,920.2z"/>
				<path d="M1395.1,923.2c-0.7,2.6-2.4,4.6-5.6,4.6c-3.6,0-6.2-2.7-6.2-7.5c0-4,2.1-7.7,6.4-7.7c3.7,0,5.2,2.6,5.5,4.6h-1.5
					c-0.4-1.7-1.5-3.3-4-3.3c-3.1,0-4.8,2.6-4.8,6.2c0,3.5,1.6,6.2,4.7,6.2c2.1,0,3.4-1.1,4.1-3.2H1395.1z"/>
				<path d="M1399.9,906.1v9.3c0.8-1.5,2.2-2.8,4.8-2.8c2.1,0,4.9,1,4.9,5.6v9.2h-1.5v-8.9c0-2.9-1.3-4.5-3.7-4.5
					c-2.9,0-4.5,1.8-4.5,5.3v8.1h-1.5v-21.4H1399.9z"/>
				<path d="M1414.6,920.4c0,3.7,1.9,6.1,4.7,6.1c2.7,0,3.7-1.5,4.2-2.7h1.5c-0.6,1.9-2.1,4.1-5.7,4.1c-4.4,0-6.1-3.8-6.1-7.5
					c0-4.1,2.1-7.7,6.3-7.7c4.5,0,5.9,3.9,5.9,6.6c0,0.4,0,0.8,0,1.2H1414.6z M1423.8,919.1c0-2.9-1.6-5.1-4.4-5.1
					c-3,0-4.4,2.1-4.7,5.1H1423.8z"/>
			</g>
		</g>
		<rect x="1153.6" y="1030.1" width="49.3" height="49.3"/>
		<g>
			<g>
				<path d="M1269.4,1038.7c0-4,0-7.8,0.1-9.8h-0.1c-0.8,2.7-4.9,12.7-7.5,19.1h-1.5c-1.9-5-6.2-16.1-7.1-19.2h-0.1
					c0.1,2.3,0.2,7,0.2,10.5v8.6h-1.6v-20.3h2.3c2.8,7,6.3,16.1,7,18.4h0.1c0.5-1.5,4.5-11.6,7.4-18.4h2.3v20.3h-1.6V1038.7z"/>
				<path d="M1287,1043.8c0,1.4,0,3.7,0,4.2h-1.4c-0.1-0.4-0.1-1.3-0.1-2.5c-0.6,1.7-2.1,2.9-4.7,2.9c-2.1,0-4.8-0.8-4.8-5.2v-9.6
					h1.4v9.3c0,2.1,0.7,4.2,3.5,4.2c3.2,0,4.5-1.8,4.5-6v-7.5h1.5V1043.8z"/>
				<path d="M1292.1,1040.9c0,3.7,1.9,6.1,4.7,6.1c2.7,0,3.7-1.5,4.2-2.7h1.5c-0.6,1.9-2.1,4.1-5.7,4.1c-4.4,0-6.1-3.8-6.1-7.5
					c0-4.1,2.1-7.7,6.3-7.7c4.5,0,5.9,3.9,5.9,6.6c0,0.4,0,0.8,0,1.2H1292.1z M1301.3,1039.7c0-2.9-1.6-5.1-4.4-5.1
					c-3,0-4.4,2.1-4.7,5.1H1301.3z"/>
				<path d="M1306.3,1037.5c0-2.4,0-3.5,0-3.9h1.4c0,0.5,0.1,1.4,0.1,3.2c0.8-2.2,2.7-3.5,5-3.6v1.6c-3,0.2-5,2.3-5,5.7v7.5h-1.5
					V1037.5z"/>
				<path d="M1313.5,1033.5h2.7v-4.5h1.5v4.5h3.5v1.4h-3.5v9.4c0,1.6,0.3,2.6,1.7,2.6c0.4,0,1,0,1.5-0.2v1.3
					c-0.5,0.2-1.2,0.3-1.8,0.3c-1.9,0-2.9-0.9-2.9-3.2v-10.1h-2.7V1033.5z"/>
				<path d="M1324.4,1040.9c0,3.7,1.9,6.1,4.7,6.1c2.7,0,3.7-1.5,4.2-2.7h1.5c-0.6,1.9-2.1,4.1-5.7,4.1c-4.4,0-6.1-3.8-6.1-7.5
					c0-4.1,2.1-7.7,6.3-7.7c4.5,0,5.9,3.9,5.9,6.6c0,0.4,0,0.8,0,1.2H1324.4z M1333.6,1039.7c0-2.9-1.6-5.1-4.4-5.1
					c-3,0-4.4,2.1-4.7,5.1H1333.6z"/>
				<path d="M1346.5,1040.9c0,3.7,1.9,6.1,4.7,6.1c2.7,0,3.7-1.5,4.2-2.7h1.5c-0.6,1.9-2.1,4.1-5.7,4.1c-4.4,0-6.1-3.8-6.1-7.5
					c0-4.1,2.1-7.7,6.3-7.7c4.5,0,5.9,3.9,5.9,6.6c0,0.4,0,0.8,0,1.2H1346.5z M1355.7,1039.7c0-2.9-1.6-5.1-4.4-5.1
					c-3,0-4.4,2.1-4.7,5.1H1355.7z"/>
				<path d="M1360.7,1037.2c0-1.3,0-2.5,0-3.7h1.4c0.1,0.5,0.1,2.3,0.1,2.8c0.6-1.5,1.8-3.1,4.8-3.1c2.6,0,4.9,1.5,4.9,5.5v9.4h-1.5
					v-9.2c0-2.6-1.1-4.3-3.6-4.3c-3.5,0-4.6,2.9-4.6,6v7.4h-1.5V1037.2z"/>
				<path d="M1384.5,1040.9c0,3.7,1.9,6.1,4.7,6.1c2.7,0,3.7-1.5,4.2-2.7h1.5c-0.6,1.9-2.1,4.1-5.7,4.1c-4.4,0-6.1-3.8-6.1-7.5
					c0-4.1,2.1-7.7,6.3-7.7c4.5,0,5.9,3.9,5.9,6.6c0,0.4,0,0.8,0,1.2H1384.5z M1393.7,1039.7c0-2.9-1.6-5.1-4.4-5.1
					c-3,0-4.4,2.1-4.7,5.1H1393.7z"/>
				<path d="M1398.7,1048v-21.4h1.5v21.4H1398.7z"/>
				<path d="M1261.3,1080.1c0,1.3,0.1,2.3,0.2,2.8h-1.4c-0.1-0.3-0.2-1-0.3-2.2c-0.5,1.1-1.8,2.6-4.8,2.6c-3.4,0-4.8-2.2-4.8-4.4
					c0-3.2,2.5-4.6,6.8-4.6c1.2,0,2.2,0,2.8,0v-1.5c0-1.5-0.4-3.4-3.7-3.4c-2.9,0-3.4,1.5-3.7,2.7h-1.5c0.2-1.6,1.2-4.1,5.2-4.1
					c3.3,0,5.2,1.4,5.2,4.6V1080.1z M1259.9,1075.4c-0.6,0-1.9,0-2.8,0c-3.2,0-5.2,0.8-5.2,3.3c0,1.8,1.3,3.1,3.3,3.1
					c4.1,0,4.7-2.8,4.7-5.9V1075.4z"/>
				<path d="M1276.7,1078.5c-0.7,2.6-2.4,4.6-5.6,4.6c-3.6,0-6.2-2.7-6.2-7.5c0-4,2.1-7.7,6.4-7.7c3.7,0,5.2,2.6,5.5,4.6h-1.5
					c-0.4-1.7-1.5-3.3-4-3.3c-3.1,0-4.8,2.6-4.8,6.2c0,3.5,1.6,6.2,4.7,6.2c2.1,0,3.4-1.1,4.1-3.2H1276.7z"/>
				<path d="M1290.8,1078.5c-0.7,2.6-2.4,4.6-5.6,4.6c-3.6,0-6.2-2.7-6.2-7.5c0-4,2.1-7.7,6.4-7.7c3.7,0,5.2,2.6,5.5,4.6h-1.5
					c-0.4-1.7-1.5-3.3-4-3.3c-3.1,0-4.8,2.6-4.8,6.2c0,3.5,1.6,6.2,4.7,6.2c2.1,0,3.4-1.1,4.1-3.2H1290.8z"/>
				<path d="M1294.1,1061.4h1.5v2.8h-1.5V1061.4z M1294.1,1068.3h1.5v14.5h-1.5V1068.3z"/>
				<path d="M1311.5,1061.4v17.2c0,1.4,0,2.7,0,4.2h-1.4c-0.1-0.3-0.1-1.7-0.1-2.4c-0.7,1.8-2.3,2.8-4.9,2.8c-3.8,0-6-3.1-6-7.4
					c0-4.5,2.5-7.8,6.4-7.8c2.9,0,4.1,1.2,4.5,2.2v-8.7H1311.5z M1300.7,1075.7c0,4,2.1,6.1,4.6,6.1c3.8,0,4.9-2.6,4.9-6.6
					c0-3.7-0.9-5.9-4.6-5.9C1302.7,1069.3,1300.7,1071.6,1300.7,1075.7z"/>
				<path d="M1316.6,1075.7c0,3.7,1.9,6.1,4.7,6.1c2.7,0,3.7-1.5,4.2-2.7h1.5c-0.6,1.9-2.1,4.1-5.7,4.1c-4.4,0-6.1-3.8-6.1-7.5
					c0-4.1,2.1-7.7,6.3-7.7c4.5,0,5.9,3.9,5.9,6.6c0,0.4,0,0.8,0,1.2H1316.6z M1325.8,1074.5c0-2.9-1.6-5.1-4.4-5.1
					c-3,0-4.4,2.1-4.7,5.1H1325.8z"/>
				<path d="M1330.8,1072c0-1.3,0-2.5,0-3.7h1.4c0.1,0.5,0.1,2.3,0.1,2.8c0.6-1.5,1.8-3.1,4.8-3.1c2.6,0,4.9,1.5,4.9,5.5v9.4h-1.5
					v-9.2c0-2.6-1.1-4.3-3.6-4.3c-3.5,0-4.6,2.9-4.6,6v7.4h-1.5V1072z"/>
				<path d="M1344.6,1068.3h2.7v-4.5h1.5v4.5h3.5v1.4h-3.5v9.4c0,1.6,0.3,2.6,1.7,2.6c0.4,0,1,0,1.5-0.2v1.3
					c-0.5,0.2-1.2,0.3-1.8,0.3c-1.9,0-2.9-0.9-2.9-3.2v-10.1h-2.7V1068.3z"/>
				<path d="M1355.4,1075.7c0,3.7,1.9,6.1,4.7,6.1c2.7,0,3.7-1.5,4.2-2.7h1.5c-0.6,1.9-2.1,4.1-5.7,4.1c-4.4,0-6.1-3.8-6.1-7.5
					c0-4.1,2.1-7.7,6.3-7.7c4.5,0,5.9,3.9,5.9,6.6c0,0.4,0,0.8,0,1.2H1355.4z M1364.6,1074.5c0-2.9-1.6-5.1-4.4-5.1
					c-3,0-4.4,2.1-4.7,5.1H1364.6z"/>
			</g>
		</g>
	</g>
</g>
</svg>
